<?xml version="1.0" encoding="utf-8"?>
<svg version="1.1" xmlns:xlink="http://www.w3.org/1999/xlink" width="363px" height="184px" xmlns="http://www.w3.org/2000/svg">
  <g transform="matrix(1 0 0 1 -200 -226 )">
    <path d="M 201 230  A 3 3 0 0 1 204 227 L 559 227  A 3 3 0 0 1 562 230 L 562 406  A 3 3 0 0 1 559 409 L 204 409  A 3 3 0 0 1 201 406 L 201 230  Z " fill-rule="nonzero" fill="#ffffff" stroke="none" fill-opacity="0" />
    <path d="M 200.5 230  A 3.5 3.5 0 0 1 204 226.5 L 559 226.5  A 3.5 3.5 0 0 1 562.5 230 L 562.5 406  A 3.5 3.5 0 0 1 559 409.5 L 204 409.5  A 3.5 3.5 0 0 1 200.5 406 L 200.5 230  Z " stroke-width="1" stroke-dasharray="9,4" stroke="#d9d9d9" fill="none" stroke-dashoffset="0.5" />
  </g>
</svg>