<?xml version="1.0" encoding="utf-8"?>
<svg version="1.1" xmlns:xlink="http://www.w3.org/1999/xlink" width="13px" height="13px" xmlns="http://www.w3.org/2000/svg">
  <g transform="matrix(1 0 0 1 -1424 -823 )">
    <path d="M 11.3138862141393 2.97733847950821  C 11.5545805215164 2.57618129610654  11.5545805215164 2.09479266803277  11.2336547694672 1.77386692930327  L 9.86972034323776 0.329701058401668  C 9.54879459118854 -0.0714561249999974  9.06740597643443 -0.0714561249999974  8.74648023770487 0.329701058401668  L 8.0243973022541 1.13201542520494  L 1.92680810655736 7.7912246803279  C 1.84657667520492 7.87145611168035  1.84657667520492 7.95168755635245  1.84657666188525 8.03191900102462  L 1.36518804713114 10.599324977459  C 1.2849566157787 10.9202507295082  1.52565092315569 11.1609450368853  1.84657666188525 11.0807135922132  L 4.25351976229513 10.599324977459  C 4.33375119364757 10.599324977459  4.41398263831968 10.5190935461066  4.49421408299179 10.4388621014344  L 10.1906460952869 4.18081002971314  L 11.3138862141393 2.97733847950821  Z M 4.49421408299179 9.315621982582  L 3.93259402356557 9.87724204200822  L 2.24773384528692 10.1981677940574  L 2.56865959733602 8.43307618442623  L 3.13027965676224 7.7912246803279  L 4.49421408299179 9.315621982582  Z M 9.62902603586065 3.53895853893442  L 5.05583414241801 8.59353906045084  L 3.69189971618857 7.06914175819674  L 8.2650916096311 2.09479266803277  L 9.62902603586065 3.53895853893442  Z M 10.7522661547131 2.41571842008199  L 10.1906460952869 3.05756991086065  L 8.74648023770487 1.53317260860655  L 9.30810028381143 0.891321117827886  L 10.7522661547131 2.41571842008199  Z M 0.0814850522541519 12.6051108944673  L 0.0814850522541519 11.802796527664  L 12.9185149477458 11.802796527664  L 12.9185149477458 12.6051108944673  L 0.0814850522541519 12.6051108944673  Z " fill-rule="nonzero" fill="#ffffff" stroke="none" transform="matrix(1 0 0 1 1424 823 )" />
  </g>
</svg>