<?xml version="1.0" encoding="utf-8"?>
<svg version="1.1" xmlns:xlink="http://www.w3.org/1999/xlink" width="16px" height="16px" xmlns="http://www.w3.org/2000/svg">
  <g transform="matrix(1 0 0 1 -16 -201 )">
    <path d="M 15.9483870967742 7.96384181355927  C 15.9139785 7.31299435593223  15.741935483871 6.40903955932208  15.741935483871 6.37288135593224  C 15.6731182741935 5.90282486440674  15.3978494677419 5.57740113559316  15.0537634354839 5.57740113559316  L 14.9849462419355 5.57740113559316  C 13.8494623709677 5.57740113559316  12.9204301129032 4.60112994915255  12.9204301129032 3.37175140677971  C 12.9204301129032 2.97401128813556  13.0924731290323 2.5401129830509  13.0924731129032 2.54011300000002  C 13.2989247258064 2.14237288135598  13.1612903225806 1.60000000000002  12.8172043064516 1.34689266101691  L 12.7827956935484 1.34689266101691  L 10.7870967741935 0.189830508474529  L 10.7526881774193 0.189830508474529  C 10.6494623709677 0.153672322033913  10.5118279677419 0.117514118644067  10.3741935483871 0.117514118644067  C 10.0989247258065 0.117514118644067  9.82365591935485 0.225988694915259  9.65161290322581 0.442937847457642  C 9.41075269354837 0.696045186440642  8.65376343548388 1.38305084745764  8.0344085967742 1.38305084745764  C 7.41505375806452 1.38305084745764  6.65806451612903 0.696045203389872  6.41720430645162 0.406779661016913  C 6.24516129032259 0.153672322033913  5.93548387096774 0.0451977457627208  5.6602150483871 0.0451977457627208  C 5.5225806451613 0.0451977457627208  5.38494622580646 0.081355932203337  5.28172043548386 0.117514118644067  L 5.24731182258066 0.117514118644067  L 3.18279569354839 1.31073445762706  L 3.14838709677419 1.31073445762706  C 2.83870967741936 1.60000000000002  2.70107527419354 2.14237288135598  2.87311827419354 2.54011300000002  C 2.87311827419354 2.54011300000002  3.04516129032258 2.97401130508479  3.04516129032258 3.37175140677971  C 3.04516129032258 4.5649717457627  2.11612903225806 5.57740111864405  0.980645161290326 5.57740113559316  L 0.946236564516127 5.57740113559316  C 0.636559145161286 5.57740113559316  0.361290322580643 5.90282486440674  0.258064516129039 6.37288135593224  C 0.258064516129039 6.40903954237285  0.0860215000000011 7.31299435593223  0.0860215000000011 8  C 0.0860215000000011 8.72316384745761  0.258064516129039 9.62711864406776  0.258064516129039 9.66327683050849  C 0.326881725806444 10.1333333220339  0.602150532258065 10.4587570508475  0.946236564516127 10.4587570677966  L 1.01505375806451 10.4587570677966  C 2.15053762903226 10.4587570677966  3.07956988709678 11.4350282542373  3.07956988709678 12.664406779661  C 3.07956988709678 13.0621468983051  2.90752687096774 13.4960452033898  2.90752688709678 13.4960452033898  C 2.70107527419354 13.8937853220339  2.83870967741936 14.4  3.18279569354839 14.6531073389831  L 3.21720430645161 14.6531073389831  L 5.14408601612902 15.8101694915255  L 5.17849462903226 15.8101694915255  C 5.28172043548386 15.8824858813559  5.41935483870967 15.8824858813559  5.5569892419355 15.8824858813559  C 5.83225806451614 15.8824858813559  6.10752687096775 15.7740113050847  6.31397849999999 15.5570621525424  C 6.55483870967743 15.3039548135594  7.34623656451612 14.544632779661  7.9655914032258 14.5446327627119  C 8.61935483870968 14.5446327627119  9.3763440967742 15.3039547966101  9.61720430645161 15.5932203389831  C 9.78924732258065 15.8101694915255  10.0645161290323 15.9186440677967  10.3741935483871 15.9186440677967  C 10.5118279516129 15.9186440677967  10.6494623709677 15.8824858813559  10.7526881774193 15.8463276779661  L 10.7870967741935 15.8463276779661  L 12.7827956935484 14.6531073389831  L 12.8172043064516 14.6531073389831  C 13.1612903225806 14.4  13.2989247419355 13.857627118644  13.1268817258064 13.459887  C 13.1268817258064 13.459887  12.9548387096774 13.0259886949152  12.9548387096774 12.6282485932203  C 12.9548387096774 11.4350282542373  13.8838709677419 10.422598881356  15.0193548387097 10.4225988644068  L 15.0881720483871 10.4225988644068  C 15.3978494677419 10.4225988644068  15.6731182903226 10.1333333220339  15.7763440806452 9.62711864406776  C 15.7763440806452 9.59096045762715  15.9483870967742 8.68700564406777  15.9483870967742 7.96384181355927  Z M 10.7526881774193 8  C 10.7526881774193 9.59096045762715  9.51397850000001 10.8926553728813  8 10.8926553728813  C 6.48602149999999 10.8926553728813  5.24731182258066 9.59096045762715  5.24731182258066 8  C 5.24731182258066 6.40903954237285  6.48602149999999 5.10734462711866  8 5.10734462711866  C 9.51397850000001 5.10734462711866  10.7526881774193 6.40903954237285  10.7526881774193 8  Z " fill-rule="nonzero" fill="#868686" stroke="none" transform="matrix(1 0 0 1 16 201 )" />
  </g>
</svg>