<?xml version="1.0" encoding="utf-8"?>
<svg version="1.1" xmlns:xlink="http://www.w3.org/1999/xlink" width="56px" height="36px" xmlns="http://www.w3.org/2000/svg">
  <defs>
    <mask fill="white" id="clip215">
      <path d="M 0 32  L 0 4  C 0 1.75999999999999  1.58967741935483 0  3.61290322580645 0  L 36.7666034155596 0  L 52.3870967741935 0  C 54.4103225806452 0  56 1.75999999999999  56 4  L 56 32  C 56 34.24  54.4103225806452 36  52.3870967741935 36  L 3.61290322580645 36  C 1.58967741935483 36  0 34.24  0 32  Z " fill-rule="evenodd" />
    </mask>
  </defs>
  <g transform="matrix(1 0 0 1 -749 -437 )">
    <path d="M 0 32  L 0 4  C 0 1.75999999999999  1.58967741935483 0  3.61290322580645 0  L 36.7666034155596 0  L 52.3870967741935 0  C 54.4103225806452 0  56 1.75999999999999  56 4  L 56 32  C 56 34.24  54.4103225806452 36  52.3870967741935 36  L 3.61290322580645 36  C 1.58967741935483 36  0 34.24  0 32  Z " fill-rule="nonzero" fill="#ecf5ff" stroke="none" transform="matrix(1 0 0 1 749 437 )" />
    <path d="M 0 32  L 0 4  C 0 1.75999999999999  1.58967741935483 0  3.61290322580645 0  L 36.7666034155596 0  L 52.3870967741935 0  C 54.4103225806452 0  56 1.75999999999999  56 4  L 56 32  C 56 34.24  54.4103225806452 36  52.3870967741935 36  L 3.61290322580645 36  C 1.58967741935483 36  0 34.24  0 32  Z " stroke-width="2" stroke="#c6e2ff" fill="none" transform="matrix(1 0 0 1 749 437 )" mask="url(#clip215)" />
  </g>
</svg>