<?xml version="1.0" encoding="utf-8"?>
<svg version="1.1" xmlns:xlink="http://www.w3.org/1999/xlink" width="10px" height="5px" xmlns="http://www.w3.org/2000/svg">
  <g transform="matrix(1 0 0 1 -261 -30 )">
    <path d="M 9.81513214560951 0.649069401052202  C 9.96309896187498 0.514913615850674  9.95729634162927 0.297871772276721  9.8035269051181 0.167988464311293  C 9.64975746860691 0.0372506608987351  9.40411321153874 0.0415231381343801  9.25614639527328 0.178242409677296  L 4.94093113921755 4.15250073433162  L 0.707919669975979 0.167988464311293  C 0.560919957084792 0.030414697321703  0.316242803390907 0.0235787337446709  0.160539160131151 0.152607546262971  C 0.00483551687142381 0.28163635878127  -0.00290131012286565 0.497823706908093  0.143131299394042 0.635397473897683  L 4.65563564380375 4.88309434163784  L 4.67014219441799 4.89591177334478  C 4.67207640116658 4.89762076423904  4.67401060791514 4.89932975513329  4.676911918038 4.90103874602755  C 4.67981322816084 4.90360223236894  4.6827145382837 4.9053112232632  4.68561584840654 4.90787470960458  C 4.68851715852941 4.91043819594688  4.69141846865224 4.91214718684114  4.69431977877511 4.9138561777354  C 4.69625398552367 4.91556516862966  4.69818819227223 4.91727415952391  4.70108950239509 4.91898315041817  C 4.70399081251793 4.92069214131243  4.7068921226408 4.92325562765382  4.70979343276366 4.92496461854807  C 4.71172763951222 4.92667360944233  4.71462894963506 4.92838260033659  4.71656315638364 4.92923709578372  L 4.72526708675218 4.93436406846649  C 4.72816839687505 4.93607305936121  4.73010260362361 4.93778205025546  4.73300391374647 4.93863654570259  C 4.73590522386931 4.94034553659685  4.73880653399218 4.94120003204398  4.74170784411501 4.94290902293824  C 4.74460915423788 4.9446180138325  4.74751046436072 4.94547250927963  4.75041177448358 4.94718150017388  C 4.75331308460642 4.94889049106814  4.755247291355 4.94974498651527  4.75814860147784 4.9505994819624  C 4.76104991160071 4.95230847285666  4.76395122172354 4.95316296830379  4.76781963522069 4.95487195919804  C 4.77072094534356 4.95572645464517  4.77265515209211 4.95743544553943  4.77555646221498 4.95828994098656  C 4.77845777233782 4.95999893188082  4.78232618583496 4.96085342732795  4.7852274959578 4.96256241822221  C 4.78716170270638 4.96341691366933  4.79006301282922 4.96427140911646  4.79199721957781 4.96512590456359  C 4.79586563307493 4.96683489545785  4.79876694319779 4.96768939090498  4.80263535669494 4.96854388635211  C 4.80456956344349 4.96939838179924  4.80747087356633 4.97025287724637  4.80940508031492 4.9711073726935  C 4.81327349381206 4.97196186814062  4.81714190730918 4.97367085903488  4.82101032080632 4.97452535448201  C 4.82294452755488 4.97537984992914  4.82584583767775 4.97537984992914  4.82778004442631 4.97623434537627  L 4.83938528491771 4.97879783171766  C 4.8413194916663 4.97965232716479  4.84325369841486 4.97965232716479  4.84615500853772 4.98050682261191  C 4.85002342203484 4.98136131805904  4.85389183553198 4.98221581350617  4.85872735240341 4.9830703089533  C 4.86066155915196 4.9830703089533  4.86259576590055 4.98392480440043  4.86452997264911 4.98392480440043  C 4.86839838614625 4.98477929984756  4.87323390301765 4.98563379529469  4.87710231651479 4.98563379529469  C 4.87903652326338 4.98563379529469  4.88097073001194 4.98648829074182  4.8829049367605 4.98648829074182  C 4.88774045363192 4.9873427861894  4.89160886712907 4.9873427861894  4.89644438400049 4.98819728163653  C 4.89837859074905 4.98819728163653  4.90031279749761 4.98819728163653  4.90224700424619 4.98905177708366  C 4.90708252111762 4.98905177708366  4.91191803798904 4.98990627253079  4.91675355486046 4.98990627253079  L 4.96124031007753 4.98990627253079  C 4.96607582694895 4.98990627253079  4.97091134382035 4.98905177708366  4.97574686069177 4.98905177708366  C 4.97768106744036 4.98905177708366  4.97961527418892 4.98905177708366  4.9805823775632 4.98819728163653  C 4.98541789443462 4.98819728163653  4.98928630793176 4.9873427861894  4.99412182480319 4.98648829074182  C 4.99605603155175 4.98648829074182  4.9979902383003 4.98563379529469  4.99992444504889 4.98563379529469  C 5.00379285854601 4.98477929984756  5.00862837541743 4.98477929984756  5.01249678891458 4.98392480440043  C 5.01443099566313 4.98392480440043  5.01636520241172 4.9830703089533  5.01829940916028 4.9830703089533  L 5.02990464965168 4.98050682261191  C 5.03183885640027 4.97965232716479  5.03377306314883 4.97965232716479  5.03667437327169 4.97879783171766  L 5.0482796137631 4.97623434537627  C 5.05021382051166 4.97537984992914  5.05311513063452 4.97537984992914  5.05504933738308 4.97452535448201  C 5.05891775088023 4.97367085903488  5.06278616437734 4.97281636358775  5.06568747450021 4.9711073726935  C 5.06762168124877 4.97025287724637  5.07052299137163 4.96939838179924  5.07245719812019 4.96854388635211  C 5.07632561161734 4.96768939090498  5.07922692174017 4.96598040001072  5.08309533523732 4.96512590456359  C 5.08599664536018 4.96427140911646  5.08793085210874 4.96341691366933  5.09083216223158 4.96256241822221  C 5.09373347235444 4.96170792277508  5.09760188585159 4.95999893188082  5.10050319597443 4.95828994098656  C 5.10340450609729 4.95743544553943  5.10533871284585 4.9565809500923  5.10824002296872 4.95487195919804  C 5.11114133309155 4.95316296830379  5.11404264321442 4.95230847285666  5.11694395333726 4.9505994819624  C 5.11984526346012 4.94974498651527  5.12274657358296 4.94803599562101  5.12468078033154 4.94718150017388  C 5.12758209045438 4.94547250927963  5.13048340057725 4.9446180138325  5.13241760732581 4.94290902293824  C 5.13531891744867 4.94120003204398  5.13822022757151 4.94034553659685  5.14112153769437 4.93863654570259  C 5.14402284781721 4.93692755480834  5.14595705456577 4.93607305936121  5.14885836468864 4.93436406846649  L 5.1575622950572 4.92923709578372  C 5.15949650180576 4.92752810488946  5.16143070855432 4.92667360944233  5.16433201867719 4.92496461854807  C 5.16723332880002 4.92325562765382  5.17013463892289 4.92069214131243  5.17400305242003 4.91898315041817  C 5.17593725916859 4.91812865497104  5.17787146591715 4.91641966407678  5.17980567266574 4.91471067318253  C 5.18270698278857 4.91214718684114  5.18657539628572 4.91043819594688  5.18947670640858 4.90787470960458  C 5.19141091315714 4.90702021415746  5.19237801653142 4.9053112232632  5.19431222327998 4.90360223236894  C 5.1991477401514 4.89932975513329  5.20398325702283 4.89591177334478  5.20881877389425 4.89163929610913  L 5.21752270426282 4.88394883708497  L 9.81513214560951 0.649069401052202  Z " fill-rule="nonzero" fill="#c0c4cc" stroke="none" transform="matrix(1 0 0 1 261 30 )" />
  </g>
</svg>