<?xml version="1.0" encoding="utf-8"?>
<svg version="1.1" xmlns:xlink="http://www.w3.org/1999/xlink" width="12px" height="12px" xmlns="http://www.w3.org/2000/svg">
  <g transform="matrix(1 0 0 1 -100 -377 )">
    <path d="M 106 377  C 109.36 377  112 379.64  112 383  C 112 386.36  109.36 389  106 389  C 102.64 389  100 386.36  100 383  C 100 379.64  102.64 377  106 377  Z " fill-rule="nonzero" fill="#ffffff" stroke="none" />
    <path d="M 106 377.5  C 109.08 377.5  111.5 379.92  111.5 383  C 111.5 386.08  109.08 388.5  106 388.5  C 102.92 388.5  100.5 386.08  100.5 383  C 100.5 379.92  102.92 377.5  106 377.5  Z " stroke-width="1" stroke="#c0c4cc" fill="none" />
  </g>
</svg>