<?xml version="1.0" encoding="utf-8"?>
<svg version="1.1" xmlns:xlink="http://www.w3.org/1999/xlink" width="104px" height="42px" xmlns="http://www.w3.org/2000/svg">
  <defs>
    <mask fill="white" id="clip244">
      <path d="M 0 37.8  L 0 4.2  C 0 1.84799999999999  1.90666666666666 0  4.33333333333333 0  L 49.8333333333333 0  L 99.6666666666667 0  C 102.093333333333 0  104 1.84799999999999  104 4.2  L 104 37.8  C 104 40.152  102.093333333333 42  99.6666666666667 42  L 4.33333333333333 42  C 1.90666666666666 42  0 40.152  0 37.8  Z " fill-rule="evenodd" />
    </mask>
  </defs>
  <g transform="matrix(1 0 0 1 -292 -213 )">
    <path d="M 0 37.8  L 0 4.2  C 0 1.84799999999999  1.90666666666666 0  4.33333333333333 0  L 49.8333333333333 0  L 99.6666666666667 0  C 102.093333333333 0  104 1.84799999999999  104 4.2  L 104 37.8  C 104 40.152  102.093333333333 42  99.6666666666667 42  L 4.33333333333333 42  C 1.90666666666666 42  0 40.152  0 37.8  Z " fill-rule="nonzero" fill="#409eff" stroke="none" transform="matrix(1 0 0 1 292 213 )" />
    <path d="M 0 37.8  L 0 4.2  C 0 1.84799999999999  1.90666666666666 0  4.33333333333333 0  L 49.8333333333333 0  L 99.6666666666667 0  C 102.093333333333 0  104 1.84799999999999  104 4.2  L 104 37.8  C 104 40.152  102.093333333333 42  99.6666666666667 42  L 4.33333333333333 42  C 1.90666666666666 42  0 40.152  0 37.8  Z " stroke-width="2" stroke="#409eff" fill="none" transform="matrix(1 0 0 1 292 213 )" mask="url(#clip244)" />
  </g>
</svg>