<?xml version="1.0" encoding="utf-8"?>
<svg version="1.1" xmlns:xlink="http://www.w3.org/1999/xlink" width="62px" height="32px" xmlns="http://www.w3.org/2000/svg">
  <g transform="matrix(1 0 0 1 -640 -578 )">
    <path d="M 640.5 582  A 3.5 3.5 0 0 1 644 578.5 L 698 578.5  A 3.5 3.5 0 0 1 701.5 582 L 701.5 606  A 3.5 3.5 0 0 1 698 609.5 L 644 609.5  A 3.5 3.5 0 0 1 640.5 606 L 640.5 582  Z " fill-rule="nonzero" fill="#0099ff" stroke="none" fill-opacity="0.0980392156862745" />
    <path d="M 640.5 582  A 3.5 3.5 0 0 1 644 578.5 L 698 578.5  A 3.5 3.5 0 0 1 701.5 582 L 701.5 606  A 3.5 3.5 0 0 1 698 609.5 L 644 609.5  A 3.5 3.5 0 0 1 640.5 606 L 640.5 582  Z " stroke-width="1" stroke="#a7d2f9" fill="none" />
  </g>
</svg>