<?xml version="1.0" encoding="utf-8"?>
<svg version="1.1" xmlns:xlink="http://www.w3.org/1999/xlink" width="76px" height="32px" xmlns="http://www.w3.org/2000/svg">
  <g transform="matrix(1 0 0 1 -553 -578 )">
    <path d="M 553.5 582  A 3.5 3.5 0 0 1 557 578.5 L 625 578.5  A 3.5 3.5 0 0 1 628.5 582 L 628.5 606  A 3.5 3.5 0 0 1 625 609.5 L 557 609.5  A 3.5 3.5 0 0 1 553.5 606 L 553.5 582  Z " fill-rule="nonzero" fill="#0099ff" stroke="none" fill-opacity="0.0980392156862745" />
    <path d="M 553.5 582  A 3.5 3.5 0 0 1 557 578.5 L 625 578.5  A 3.5 3.5 0 0 1 628.5 582 L 628.5 606  A 3.5 3.5 0 0 1 625 609.5 L 557 609.5  A 3.5 3.5 0 0 1 553.5 606 L 553.5 582  Z " stroke-width="1" stroke="#a7d2f9" fill="none" />
  </g>
</svg>