<?xml version="1.0" encoding="utf-8"?>
<svg version="1.1" xmlns:xlink="http://www.w3.org/1999/xlink" width="62px" height="32px" xmlns="http://www.w3.org/2000/svg">
  <g transform="matrix(1 0 0 1 -786 -578 )">
    <path d="M 787 582  A 3 3 0 0 1 790 579 L 844 579  A 3 3 0 0 1 847 582 L 847 606  A 3 3 0 0 1 844 609 L 790 609  A 3 3 0 0 1 787 606 L 787 582  Z " fill-rule="nonzero" fill="#f56c6c" stroke="none" fill-opacity="0.0980392156862745" />
    <path d="M 786.5 582  A 3.5 3.5 0 0 1 790 578.5 L 844 578.5  A 3.5 3.5 0 0 1 847.5 582 L 847.5 606  A 3.5 3.5 0 0 1 844 609.5 L 790 609.5  A 3.5 3.5 0 0 1 786.5 606 L 786.5 582  Z " stroke-width="1" stroke="#f56c6c" fill="none" stroke-opacity="0.2" />
  </g>
</svg>