<?xml version="1.0" encoding="utf-8"?>
<svg version="1.1" xmlns:xlink="http://www.w3.org/1999/xlink" width="62px" height="32px" xmlns="http://www.w3.org/2000/svg">
  <g transform="matrix(1 0 0 1 -640 -578 )">
    <path d="M 641 582  A 3 3 0 0 1 644 579 L 698 579  A 3 3 0 0 1 701 582 L 701 606  A 3 3 0 0 1 698 609 L 644 609  A 3 3 0 0 1 641 606 L 641 582  Z " fill-rule="nonzero" fill="#e6a23c" stroke="none" fill-opacity="0.0980392156862745" />
    <path d="M 640.5 582  A 3.5 3.5 0 0 1 644 578.5 L 698 578.5  A 3.5 3.5 0 0 1 701.5 582 L 701.5 606  A 3.5 3.5 0 0 1 698 609.5 L 644 609.5  A 3.5 3.5 0 0 1 640.5 606 L 640.5 582  Z " stroke-width="1" stroke="#e6a23c" fill="none" stroke-opacity="0.2" />
  </g>
</svg>