<?xml version="1.0" encoding="utf-8"?>
<svg version="1.1" xmlns:xlink="http://www.w3.org/1999/xlink" width="62px" height="32px" xmlns="http://www.w3.org/2000/svg">
  <g transform="matrix(1 0 0 1 -713 -578 )">
    <path d="M 714 582  A 3 3 0 0 1 717 579 L 771 579  A 3 3 0 0 1 774 582 L 774 606  A 3 3 0 0 1 771 609 L 717 609  A 3 3 0 0 1 714 606 L 714 582  Z " fill-rule="nonzero" fill="#909399" stroke="none" fill-opacity="0.0980392156862745" />
    <path d="M 713.5 582  A 3.5 3.5 0 0 1 717 578.5 L 771 578.5  A 3.5 3.5 0 0 1 774.5 582 L 774.5 606  A 3.5 3.5 0 0 1 771 609.5 L 717 609.5  A 3.5 3.5 0 0 1 713.5 606 L 713.5 582  Z " stroke-width="1" stroke="#909399" fill="none" stroke-opacity="0.2" />
  </g>
</svg>