<?xml version="1.0" encoding="utf-8"?>
<svg version="1.1" xmlns:xlink="http://www.w3.org/1999/xlink" width="15px" height="12px" xmlns="http://www.w3.org/2000/svg">
  <g transform="matrix(1 0 0 1 -895 -909 )">
    <path d="M 14.8409598214286 9.98011363636364  C 14.9469866071429 10.0880681818182  15 10.2159090909091  15 10.3636363636364  L 15 11.4545454545455  C 15 11.6022727272727  14.9469866071429 11.7301136363636  14.8409598214286 11.8380681818182  C 14.7349330357143 11.9460227272727  14.609375 12  14.4642857142857 12  L 0.535714285714286 12  C 0.390625 12  0.265066964285714 11.9460227272727  0.159040178571429 11.8380681818182  C 0.0530133928571429 11.7301136363636  0 11.6022727272727  0 11.4545454545455  L 0 10.3636363636364  C 0 10.2159090909091  0.0530133928571429 10.0880681818182  0.159040178571429 9.98011363636364  C 0.265066964285714 9.87215909090909  0.390625 9.81818181818182  0.535714285714286 9.81818181818182  L 14.4642857142857 9.81818181818182  C 14.609375 9.81818181818182  14.7349330357143 9.87215909090909  14.8409598214286 9.98011363636364  Z M 14.8409598214286 6.70738636363636  C 14.9469866071429 6.81534090909091  15 6.94318181818182  15 7.09090909090909  L 15 8.18181818181818  C 15 8.32954545454545  14.9469866071429 8.45738636363636  14.8409598214286 8.56534090909091  C 14.7349330357143 8.67329545454546  14.609375 8.72727272727273  14.4642857142857 8.72727272727273  L 0.535714285714286 8.72727272727273  C 0.390625 8.72727272727273  0.265066964285714 8.67329545454546  0.159040178571429 8.56534090909091  C 0.0530133928571429 8.45738636363636  0 8.32954545454545  0 8.18181818181818  L 0 7.09090909090909  C 0 6.94318181818182  0.0530133928571429 6.81534090909091  0.159040178571429 6.70738636363636  C 0.265066964285714 6.59943181818182  0.390625 6.54545454545455  0.535714285714286 6.54545454545455  L 14.4642857142857 6.54545454545455  C 14.609375 6.54545454545455  14.7349330357143 6.59943181818182  14.8409598214286 6.70738636363636  Z M 14.8409598214286 3.43465909090909  C 14.9469866071429 3.54261363636364  15 3.67045454545454  15 3.81818181818182  L 15 4.90909090909091  C 15 5.05681818181818  14.9469866071429 5.18465909090909  14.8409598214286 5.29261363636364  C 14.7349330357143 5.40056818181818  14.609375 5.45454545454546  14.4642857142857 5.45454545454546  L 0.535714285714286 5.45454545454546  C 0.390625 5.45454545454546  0.265066964285714 5.40056818181818  0.159040178571429 5.29261363636364  C 0.0530133928571429 5.18465909090909  0 5.05681818181818  0 4.90909090909091  L 0 3.81818181818182  C 0 3.67045454545454  0.0530133928571429 3.54261363636364  0.159040178571429 3.43465909090909  C 0.265066964285714 3.32670454545455  0.390625 3.27272727272727  0.535714285714286 3.27272727272727  L 14.4642857142857 3.27272727272727  C 14.609375 3.27272727272727  14.7349330357143 3.32670454545455  14.8409598214286 3.43465909090909  Z M 14.8409598214286 0.161931818181819  C 14.9469866071429 0.269886363636362  15 0.397727272727272  15 0.545454545454545  L 15 1.63636363636364  C 15 1.78409090909091  14.9469866071429 1.91193181818182  14.8409598214286 2.01988636363636  C 14.7349330357143 2.12784090909091  14.609375 2.18181818181818  14.4642857142857 2.18181818181818  L 0.535714285714286 2.18181818181818  C 0.390625 2.18181818181818  0.265066964285714 2.12784090909091  0.159040178571429 2.01988636363636  C 0.0530133928571429 1.91193181818182  0 1.78409090909091  0 1.63636363636364  L 0 0.545454545454545  C 0 0.397727272727272  0.0530133928571429 0.269886363636362  0.159040178571429 0.161931818181819  C 0.265066964285714 0.0539772727272716  0.390625 0  0.535714285714286 0  L 14.4642857142857 0  C 14.609375 0  14.7349330357143 0.0539772727272716  14.8409598214286 0.161931818181819  Z " fill-rule="nonzero" fill="#000000" stroke="none" transform="matrix(1 0 0 1 895 909 )" />
  </g>
</svg>