<?xml version="1.0" encoding="utf-8"?>
<svg version="1.1" xmlns:xlink="http://www.w3.org/1999/xlink" width="15px" height="12px" xmlns="http://www.w3.org/2000/svg">
  <g transform="matrix(1 0 0 1 -925 -889 )">
    <path d="M 12.9779411764706 9.31617647058824  C 13.1495098039216 9.17892156862745  13.2352941176471 9.01470588235294  13.2352941176471 8.82352941176471  C 13.2352941176471 8.62745098039215  13.1495098039216 8.46078431372549  12.9779411764706 8.32352941176471  L 11.0661764705882 6.79411764705882  C 10.8946078431373 6.65686274509804  10.6862745098039 6.58823529411765  10.4411764705882 6.58823529411765  C 10.1838235294118 6.58823529411765  9.96323529411765 6.66666666666667  9.77941176470588 6.82352941176471  C 9.79779411764706 6.83823529411765  9.85600490196079 6.88357843137255  9.95404411764706 6.95955882352941  C 10.0520833333333 7.03553921568627  10.1179534313726 7.08823529411765  10.1516544117647 7.11764705882353  C 10.1853553921569 7.14705882352941  10.2313112745098 7.19362745098039  10.2895220588235 7.25735294117647  C 10.3477328431373 7.32107843137255  10.3875612745098 7.38357843137255  10.4090073529412 7.44485294117647  C 10.4304534313726 7.50612745098039  10.4411764705882 7.57352941176471  10.4411764705882 7.64705882352941  C 10.4411764705882 7.84313725490196  10.3553921568627 8.00980392156863  10.1838235294118 8.14705882352941  C 10.0122549019608 8.2843137254902  9.80392156862745 8.35294117647059  9.55882352941176 8.35294117647059  C 9.46691176470588 8.35294117647059  9.38265931372549 8.34436274509804  9.30606617647059 8.32720588235294  C 9.22947303921569 8.31004901960784  9.15134803921569 8.2781862745098  9.07169117647059 8.23161764705882  C 8.99203431372549 8.18504901960784  8.93382352941177 8.14828431372549  8.89705882352941 8.12132352941176  C 8.86029411764706 8.09436274509804  8.79442401960784 8.04166666666667  8.69944852941176 7.96323529411765  C 8.60447303921569 7.88480392156863  8.54779411764706 7.83823529411765  8.52941176470588 7.82352941176471  C 8.32720588235294 7.97549019607843  8.22610294117647 8.15441176470588  8.22610294117647 8.36029411764706  C 8.22610294117647 8.55637254901961  8.31188725490196 8.72303921568627  8.48345588235294 8.86029411764706  L 10.3768382352941 10.3823529411765  C 10.5422794117647 10.5147058823529  10.750612745098 10.5808823529412  11.0018382352941 10.5808823529412  C 11.2469362745098 10.5808823529412  11.4552696078431 10.5171568627451  11.6268382352941 10.3897058823529  L 12.9779411764706 9.31617647058824  Z M 6.47058823529412 4.17647058823529  C 6.67279411764706 4.02450980392157  6.77389705882353 3.84558823529412  6.77389705882353 3.63970588235294  C 6.77389705882353 3.44362745098039  6.68811274509804 3.27696078431372  6.51654411764706 3.13970588235294  L 4.62316176470588 1.61764705882353  C 4.4515931372549 1.48039215686275  4.24325980392157 1.41176470588235  3.99816176470588 1.41176470588235  C 3.75919117647059 1.41176470588235  3.55085784313726 1.47794117647059  3.37316176470588 1.61029411764706  L 2.02205882352941 2.68382352941176  C 1.85049019607843 2.82107843137255  1.76470588235294 2.98529411764706  1.76470588235294 3.17647058823529  C 1.76470588235294 3.37254901960784  1.85049019607843 3.53921568627451  2.02205882352941 3.67647058823529  L 3.93382352941176 5.20588235294118  C 4.09926470588235 5.33823529411765  4.30759803921569 5.40441176470588  4.55882352941176 5.40441176470588  C 4.81617647058824 5.40441176470588  5.03676470588235 5.32843137254902  5.22058823529412 5.17647058823529  C 5.20220588235294 5.16176470588235  5.14399509803922 5.11642156862745  5.04595588235294 5.04044117647059  C 4.94791666666667 4.96446078431373  4.88204656862745 4.91176470588235  4.84834558823529 4.88235294117647  C 4.81464460784314 4.85294117647059  4.7686887254902 4.80637254901961  4.71047794117647 4.74264705882353  C 4.65226715686275 4.67892156862745  4.6124387254902 4.61642156862745  4.59099264705882 4.55514705882353  C 4.56954656862745 4.49387254901961  4.55882352941176 4.42647058823529  4.55882352941176 4.35294117647059  C 4.55882352941176 4.15686274509804  4.64460784313725 3.99019607843137  4.81617647058824 3.85294117647059  C 4.98774509803922 3.7156862745098  5.19607843137255 3.64705882352941  5.44117647058824 3.64705882352941  C 5.53308823529412 3.64705882352941  5.61734068627451 3.65563725490196  5.69393382352941 3.67279411764706  C 5.77052696078431 3.68995098039216  5.84865196078431 3.7218137254902  5.92830882352941 3.76838235294118  C 6.00796568627451 3.81495098039216  6.06617647058824 3.85171568627451  6.10294117647059 3.87867647058824  C 6.13970588235294 3.90563725490196  6.20557598039216 3.95833333333333  6.30055147058824 4.03676470588235  C 6.39552696078431 4.11519607843137  6.45220588235294 4.16176470588235  6.47058823529412 4.17647058823529  Z M 14.2279411764706 7.32352941176471  C 14.7426470588235 7.73529411764706  15 8.23529411764706  15 8.82352941176471  C 15 9.41176470588235  14.7395833333333 9.9093137254902  14.21875 10.3161764705882  L 12.8676470588235 11.3897058823529  C 12.359068627451 11.796568627451  11.7371323529412 12  11.0018382352941 12  C 10.2604166666667 12  9.63541666666667 11.7916666666667  9.12683823529412 11.375  L 7.23345588235294 9.85294117647059  C 6.72487745098039 9.44607843137255  6.47058823529412 8.94852941176471  6.47058823529412 8.36029411764706  C 6.47058823529412 7.75735294117647  6.74019607843137 7.24509803921569  7.27941176470588 6.82352941176471  L 6.47058823529412 6.17647058823529  C 5.94362745098039 6.6078431372549  5.30637254901961 6.82352941176471  4.55882352941176 6.82352941176471  C 3.82352941176471 6.82352941176471  3.19852941176471 6.61764705882353  2.68382352941176 6.20588235294118  L 0.772058823529412 4.67647058823529  C 0.257352941176471 4.26470588235294  0 3.76470588235294  0 3.17647058823529  C 0 2.58823529411765  0.260416666666667 2.0906862745098  0.78125 1.68382352941176  L 2.13235294117647 0.610294117647059  C 2.64093137254902 0.203431372549019  3.26286764705882 0  3.99816176470588 0  C 4.73958333333333 0  5.36458333333333 0.208333333333333  5.87316176470588 0.625  L 7.76654411764706 2.14705882352941  C 8.27512254901961 2.55392156862745  8.52941176470588 3.05147058823529  8.52941176470588 3.63970588235294  C 8.52941176470588 4.24264705882353  8.25980392156863 4.75490196078431  7.72058823529412 5.17647058823529  L 8.52941176470588 5.82352941176471  C 9.05637254901961 5.3921568627451  9.69362745098039 5.17647058823529  10.4411764705882 5.17647058823529  C 11.1764705882353 5.17647058823529  11.8014705882353 5.38235294117647  12.3161764705882 5.79411764705882  L 14.2279411764706 7.32352941176471  Z " fill-rule="nonzero" fill="#000000" stroke="none" transform="matrix(1 0 0 1 925 889 )" />
  </g>
</svg>