<?xml version="1.0" encoding="utf-8"?>
<svg version="1.1" xmlns:xlink="http://www.w3.org/1999/xlink" width="15px" height="12px" xmlns="http://www.w3.org/2000/svg">
  <g transform="matrix(1 0 0 1 -444 -889 )">
    <path d="M 1.23948317307692 10.92578125  C 1.29657451923077 10.9752604166667  1.36418269230769 11  1.44230769230769 11  L 6.92307692307692 11  L 6.92307692307692 2  L 1.15384615384615 2  L 1.15384615384615 10.75  C 1.15384615384615 10.8177083333333  1.18239182692308 10.8763020833333  1.23948317307692 10.92578125  Z M 13.7605168269231 10.92578125  C 13.8176081730769 10.8763020833333  13.8461538461538 10.8177083333333  13.8461538461538 10.75  L 13.8461538461538 2  L 8.07692307692308 2  L 8.07692307692308 11  L 13.5576923076923 11  C 13.6358173076923 11  13.7034254807692 10.9752604166667  13.7605168269231 10.92578125  Z M 14.5763221153846 0.3671875  C 14.8587740384615 0.611979166666666  15 0.90625  15 1.25  L 15 10.75  C 15 11.09375  14.8587740384615 11.3880208333333  14.5763221153846 11.6328125  C 14.2938701923077 11.8776041666667  13.9543269230769 12  13.5576923076923 12  L 1.44230769230769 12  C 1.04567307692308 12  0.706129807692308 11.8776041666667  0.423677884615385 11.6328125  C 0.141225961538462 11.3880208333333  0 11.09375  0 10.75  L 0 1.25  C 0 0.90625  0.141225961538462 0.611979166666666  0.423677884615385 0.3671875  C 0.706129807692308 0.122395833333332  1.04567307692308 0  1.44230769230769 0  L 13.5576923076923 0  C 13.9543269230769 0  14.2938701923077 0.122395833333332  14.5763221153846 0.3671875  Z " fill-rule="nonzero" fill="#000000" stroke="none" transform="matrix(1 0 0 1 444 889 )" />
  </g>
</svg>