<?xml version="1.0" encoding="utf-8"?>
<svg version="1.1" xmlns:xlink="http://www.w3.org/1999/xlink" width="15px" height="12px" xmlns="http://www.w3.org/2000/svg">
  <g transform="matrix(1 0 0 1 -426 -889 )">
    <path d="M 10.7142857142857 2.57142857142857  L 14.1964285714286 2.57142857142857  C 14.4196428571429 2.57142857142857  14.609375 2.63392857142857  14.765625 2.75892857142857  C 14.921875 2.88392857142857  15 3.03571428571429  15 3.21428571428571  L 15 11.3571428571429  C 15 11.5357142857143  14.921875 11.6875  14.765625 11.8125  C 14.609375 11.9375  14.4196428571429 12  14.1964285714286 12  L 6.16071428571429 12  C 5.9375 12  5.74776785714286 11.9375  5.59151785714286 11.8125  C 5.43526785714286 11.6875  5.35714285714286 11.5357142857143  5.35714285714286 11.3571428571429  L 5.35714285714286 9.42857142857143  L 0.803571428571428 9.42857142857143  C 0.580357142857143 9.42857142857143  0.390625 9.36607142857143  0.234375 9.24107142857143  C 0.078125 9.11607142857143  0 8.96428571428572  0 8.78571428571429  L 0 4.28571428571428  C 0 4.10714285714286  0.0558035714285714 3.91071428571429  0.167410714285714 3.69642857142857  C 0.279017857142857 3.48214285714286  0.412946428571429 3.3125  0.569196428571428 3.1875  L 3.984375 0.455357142857143  C 4.140625 0.330357142857142  4.35267857142857 0.223214285714286  4.62053571428571 0.133928571428572  C 4.88839285714286 0.0446428571428577  5.13392857142857 0  5.35714285714286 0  L 8.83928571428572 0  C 9.0625 0  9.25223214285714 0.0625000000000004  9.40848214285714 0.1875  C 9.56473214285714 0.3125  9.64285714285714 0.464285714285714  9.64285714285714 0.642857142857143  L 9.64285714285714 2.83928571428571  C 10.0223214285714 2.66071428571429  10.3794642857143 2.57142857142857  10.7142857142857 2.57142857142857  Z M 9.64285714285714 6  L 9.64285714285714 3.99776785714286  L 7.14006696428571 6  L 9.64285714285714 6  Z M 4.28571428571429 3.42857142857143  L 4.28571428571429 1.42633928571429  L 1.78292410714286 3.42857142857143  L 4.28571428571429 3.42857142857143  Z M 5.52455357142857 6.26785714285714  C 5.63616071428571 6.05357142857143  5.77008928571429 5.88392857142857  5.92633928571429 5.75892857142857  L 8.57142857142857 3.64285714285714  L 8.57142857142857 0.857142857142857  L 5.35714285714286 0.857142857142857  L 5.35714285714286 3.64285714285714  C 5.35714285714286 3.82142857142857  5.27901785714286 3.97321428571429  5.12276785714286 4.09821428571428  C 4.96651785714286 4.22321428571428  4.77678571428571 4.28571428571428  4.55357142857143 4.28571428571428  L 1.07142857142857 4.28571428571428  L 1.07142857142857 8.57142857142857  L 5.35714285714286 8.57142857142857  L 5.35714285714286 6.85714285714286  C 5.35714285714286 6.67857142857143  5.41294642857143 6.48214285714286  5.52455357142857 6.26785714285714  Z M 6.42857142857143 11.1428571428571  L 13.9285714285714 11.1428571428571  L 13.9285714285714 3.42857142857143  L 10.7142857142857 3.42857142857143  L 10.7142857142857 6.21428571428571  C 10.7142857142857 6.39285714285714  10.6361607142857 6.54464285714286  10.4799107142857 6.66964285714286  C 10.3236607142857 6.79464285714286  10.1339285714286 6.85714285714286  9.91071428571428 6.85714285714286  L 6.42857142857143 6.85714285714286  L 6.42857142857143 11.1428571428571  Z " fill-rule="nonzero" fill="#000000" stroke="none" transform="matrix(1 0 0 1 426 889 )" />
  </g>
</svg>