<?xml version="1.0" encoding="utf-8"?>
<svg version="1.1" xmlns:xlink="http://www.w3.org/1999/xlink" width="15px" height="12px" xmlns="http://www.w3.org/2000/svg">
  <g transform="matrix(1 0 0 1 -485 -889 )">
    <path d="M 7.65886287625418 5.61647727272727  C 7.76477146042364 5.50852272727273  7.8901895206243 5.45454545454546  8.03511705685619 5.45454545454546  C 8.18004459308807 5.45454545454546  8.30546265328874 5.50852272727273  8.41137123745819 5.61647727272727  C 8.51727982162765 5.72443181818182  8.57023411371238 5.85227272727273  8.57023411371238 6  C 8.57023411371238 6.14772727272727  8.51727982162765 6.27556818181818  8.41137123745819 6.38352272727273  C 8.30546265328874 6.49147727272727  8.18004459308807 6.54545454545455  8.03511705685619 6.54545454545455  C 7.8901895206243 6.54545454545455  7.76477146042364 6.49147727272727  7.65886287625418 6.38352272727273  C 7.55295429208473 6.27556818181818  7.5 6.14772727272727  7.5 6  C 7.5 5.85227272727273  7.55295429208473 5.72443181818182  7.65886287625418 5.61647727272727  Z M 14.7826086956522 2.60795454545455  L 10.5434782608696 6  L 14.7826086956522 9.39204545454546  C 14.9386845039019 9.50568181818182  15.0083612040134 9.66477272727273  14.9916387959866 9.86931818181818  C 14.963768115942 10.0681818181818  14.866220735786 10.2130681818182  14.6989966555184 10.3039772727273  L 13.628762541806 10.8494318181818  C 13.5562987736901 10.8892045454545  13.4754738015608 10.9090909090909  13.3862876254181 10.9090909090909  C 13.2915273132664 10.9090909090909  13.2051282051282 10.8863636363636  13.1270903010033 10.8409090909091  L 7.35785953177257 7.54261363636364  L 6.438127090301 8.10511363636364  C 6.39353400222965 8.12784090909091  6.36008918617614 8.14204545454545  6.33779264214047 8.14772727272727  C 6.41583054626533 8.42613636363636  6.44370122630992 8.70170454545455  6.42140468227425 8.97443181818182  C 6.38238573021182 9.41193181818182  6.2263099219621 9.83096590909091  5.95317725752508 10.2315340909091  C 5.68004459308807 10.6321022727273  5.31215161649944 10.9829545454545  4.8494983277592 11.2840909090909  C 4.11371237458194 11.7613636363636  3.34169453734671 12  2.53344481605351 12  C 1.77536231884058 12  1.15663322185061 11.7784090909091  0.677257525083612 11.3352272727273  C 0.175585284280936 10.8579545454545  -0.044593088071349 10.2698863636364  0.0167224080267559 9.57102272727273  C 0.0557413600891862 9.13920454545454  0.211817168338907 8.72159090909091  0.48494983277592 8.31818181818182  C 0.758082497212932 7.91477272727273  1.1231884057971 7.5625  1.58026755852843 7.26136363636364  C 2.31605351170569 6.78409090909091  3.09085841694537 6.54545454545455  3.90468227424749 6.54545454545455  C 4.36733556298774 6.54545454545455  4.78818283166109 6.63352272727273  5.16722408026756 6.80965909090909  C 5.21739130434783 6.73579545454545  5.27870680044593 6.67329545454546  5.35117056856187 6.62215909090909  L 6.37123745819398 6  L 5.35117056856187 5.37784090909091  C 5.27870680044593 5.32670454545455  5.21739130434783 5.26420454545455  5.16722408026756 5.19034090909091  C 4.78818283166109 5.36647727272727  4.36733556298774 5.45454545454546  3.90468227424749 5.45454545454546  C 3.09085841694537 5.45454545454546  2.31605351170569 5.21590909090909  1.58026755852843 4.73863636363636  C 1.1231884057971 4.4375  0.758082497212932 4.08522727272727  0.48494983277592 3.68181818181818  C 0.211817168338907 3.27840909090909  0.0557413600891862 2.86079545454545  0.0167224080267559 2.42897727272727  C -0.0111482720178372 2.09375  0.032051282051282 1.77272727272727  0.146321070234114 1.46590909090909  C 0.260590858416945 1.15909090909091  0.437569676700111 0.894886363636364  0.677257525083612 0.673295454545455  C 1.15105908584169 0.224431818181818  1.76978818283166 0  2.53344481605351 0  C 3.34169453734671 0  4.11371237458194 0.238636363636364  4.8494983277592 0.715909090909091  C 5.31215161649944 1.01136363636363  5.68004459308807 1.36079545454545  5.95317725752508 1.76420454545454  C 6.2263099219621 2.16761363636364  6.38238573021182 2.58806818181818  6.42140468227425 3.02556818181818  C 6.44370122630992 3.29829545454546  6.41583054626533 3.57386363636364  6.33779264214047 3.85227272727273  C 6.36008918617614 3.85795454545454  6.39353400222965 3.87215909090909  6.438127090301 3.89488636363636  L 7.35785953177257 4.45738636363636  L 13.1270903010033 1.15909090909091  C 13.2051282051282 1.11363636363636  13.2915273132664 1.09090909090909  13.3862876254181 1.09090909090909  C 13.4754738015608 1.09090909090909  13.5562987736901 1.11079545454545  13.628762541806 1.15056818181818  L 14.6989966555184 1.69602272727273  C 14.866220735786 1.78693181818182  14.963768115942 1.93181818181818  14.9916387959866 2.13068181818182  C 15.0083612040134 2.33522727272727  14.9386845039019 2.49431818181818  14.7826086956522 2.60795454545455  Z M 3.90468227424749 4.09090909090909  C 4.31716833890747 4.09090909090909  4.63210702341137 3.98863636363636  4.8494983277592 3.78409090909091  C 5.10590858416945 3.54545454545455  5.1644370122631 3.23863636363636  5.02508361204013 2.86363636363636  C 4.88573021181717 2.48863636363636  4.59030100334448 2.15625  4.13879598662207 1.86647727272727  C 3.62597547380156 1.53125  3.09085841694537 1.36363636363636  2.53344481605351 1.36363636363636  C 2.12095875139353 1.36363636363636  1.80602006688963 1.46590909090909  1.58862876254181 1.67045454545454  C 1.33221850613155 1.90909090909091  1.2736900780379 2.21590909090909  1.41304347826087 2.59090909090909  C 1.55239687848384 2.96590909090909  1.84782608695652 3.29829545454546  2.29933110367893 3.58806818181818  C 2.81215161649944 3.92329545454545  3.34726867335563 4.09090909090909  3.90468227424749 4.09090909090909  Z M 2.53344481605351 10.6363636363636  C 3.09085841694537 10.6363636363636  3.62597547380156 10.46875  4.13879598662207 10.1335227272727  C 4.59030100334448 9.84375  4.88573021181717 9.51136363636364  5.02508361204013 9.13636363636364  C 5.1644370122631 8.76136363636364  5.10590858416945 8.45454545454546  4.8494983277592 8.21590909090909  C 4.63210702341137 8.01136363636364  4.31716833890747 7.90909090909091  3.90468227424749 7.90909090909091  C 3.34726867335563 7.90909090909091  2.81215161649944 8.07670454545454  2.29933110367893 8.41193181818182  C 1.84782608695652 8.70170454545455  1.55239687848384 9.03409090909091  1.41304347826087 9.40909090909091  C 1.2736900780379 9.78409090909091  1.33221850613155 10.0909090909091  1.58862876254181 10.3295454545455  C 1.80602006688963 10.5340909090909  2.12095875139353 10.6363636363636  2.53344481605351 10.6363636363636  Z M 5.70234113712375 4.83238636363636  L 5.62709030100334 4.90909090909091  L 6.42976588628763 5.40340909090909  L 6.42976588628763 5.30965909090909  C 6.42976588628763 5.10511363636364  6.52173913043478 4.94602272727273  6.7056856187291 4.83238636363636  L 6.82274247491639 4.76420454545455  L 6.16220735785953 4.36363636363636  L 5.94481605351171 4.58522727272727  C 5.92809364548495 4.60227272727273  5.90022296544036 4.63352272727273  5.86120401337793 4.67897727272727  C 5.8221850613155 4.72443181818182  5.78874024526198 4.75852272727273  5.76086956521739 4.78125  C 5.74972129319955 4.79261363636363  5.73857302118172 4.80255681818182  5.72742474916388 4.81107954545455  C 5.71627647714604 4.81960227272727  5.70791527313267 4.82670454545455  5.70234113712375 4.83238636363636  Z M 6.16220735785953 7.63636363636364  L 7.5 6.81818181818182  L 8.30267558528428 7.09090909090909  L 14.4565217391304 2.18181818181818  L 13.3862876254181 1.63636363636364  L 6.96488294314381 5.30965909090909  L 6.96488294314381 6.27272727272727  L 5.62709030100334 7.09090909090909  L 5.70234113712375 7.15909090909091  C 5.71348940914158 7.17045454545454  5.7329988851728 7.1875  5.76086956521739 7.21022727272727  C 5.78316610925307 7.23295454545454  5.81382385730212 7.26704545454545  5.85284280936455 7.3125  C 5.89186176142698 7.35795454545454  5.92251950947603 7.39204545454545  5.94481605351171 7.41477272727273  L 6.16220735785953 7.63636363636364  Z M 8.52006688963211 7.57670454545455  L 13.3862876254181 10.3636363636364  L 14.4565217391304 9.81818181818182  L 10.1086956521739 6.34090909090909  L 8.62876254180602 7.51704545454546  C 8.61761426978818 7.53409090909091  8.58138238573021 7.55397727272727  8.52006688963211 7.57670454545455  Z " fill-rule="nonzero" fill="#000000" stroke="none" transform="matrix(1 0 0 1 485 889 )" />
  </g>
</svg>