<?xml version="1.0" encoding="utf-8"?>
<svg version="1.1" xmlns:xlink="http://www.w3.org/1999/xlink" width="15px" height="12px" xmlns="http://www.w3.org/2000/svg">
  <g transform="matrix(1 0 0 1 -835 -889 )">
    <path d="M 3.134765625 3.35369318181818  C 3.18777901785714 3.40767045454545  3.21428571428571 3.47159090909091  3.21428571428571 3.54545454545455  L 3.21428571428571 8.45454545454546  C 3.21428571428571 8.52840909090909  3.18777901785714 8.59232954545454  3.134765625 8.64630681818182  C 3.08175223214286 8.70028409090909  3.01897321428571 8.72727272727273  2.94642857142857 8.72727272727273  C 2.86830357142857 8.72727272727273  2.80412946428571 8.70170454545455  2.75390625 8.65056818181818  L 0.343191964285714 6.19602272727273  C 0.29296875 6.14488636363636  0.267857142857143 6.07954545454545  0.267857142857143 6  C 0.267857142857143 5.92045454545455  0.29296875 5.85511363636364  0.343191964285714 5.80397727272727  L 2.75390625 3.34943181818182  C 2.80412946428571 3.29829545454546  2.86830357142857 3.27272727272727  2.94642857142857 3.27272727272727  C 3.01897321428571 3.27272727272727  3.08175223214286 3.29971590909091  3.134765625 3.35369318181818  Z M 14.9204799107143 9.89914772727273  C 14.9734933035714 9.953125  15 10.0170454545455  15 10.0909090909091  L 15 11.7272727272727  C 15 11.8011363636364  14.9734933035714 11.8650568181818  14.9204799107143 11.9190340909091  C 14.8674665178571 11.9730113636364  14.8046875 12  14.7321428571429 12  L 0.267857142857143 12  C 0.1953125 12  0.132533482142857 11.9730113636364  0.0795200892857143 11.9190340909091  C 0.0265066964285714 11.8650568181818  0 11.8011363636364  0 11.7272727272727  L 0 10.0909090909091  C 0 10.0170454545455  0.0265066964285714 9.953125  0.0795200892857143 9.89914772727273  C 0.132533482142857 9.84517045454546  0.1953125 9.81818181818182  0.267857142857143 9.81818181818182  L 14.7321428571429 9.81818181818182  C 14.8046875 9.81818181818182  14.8674665178571 9.84517045454546  14.9204799107143 9.89914772727273  Z M 14.9204799107143 6.62642045454546  C 14.9734933035714 6.68039772727273  15 6.74431818181818  15 6.81818181818182  L 15 8.45454545454546  C 15 8.52840909090909  14.9734933035714 8.59232954545454  14.9204799107143 8.64630681818182  C 14.8674665178571 8.70028409090909  14.8046875 8.72727272727273  14.7321428571429 8.72727272727273  L 5.625 8.72727272727273  C 5.55245535714286 8.72727272727273  5.48967633928571 8.70028409090909  5.43666294642857 8.64630681818182  C 5.38364955357143 8.59232954545454  5.35714285714286 8.52840909090909  5.35714285714286 8.45454545454546  L 5.35714285714286 6.81818181818182  C 5.35714285714286 6.74431818181818  5.38364955357143 6.68039772727273  5.43666294642857 6.62642045454546  C 5.48967633928571 6.57244318181818  5.55245535714286 6.54545454545455  5.625 6.54545454545455  L 14.7321428571429 6.54545454545455  C 14.8046875 6.54545454545455  14.8674665178571 6.57244318181818  14.9204799107143 6.62642045454546  Z M 14.9204799107143 3.35369318181818  C 14.9734933035714 3.40767045454545  15 3.47159090909091  15 3.54545454545455  L 15 5.18181818181818  C 15 5.25568181818182  14.9734933035714 5.31960227272727  14.9204799107143 5.37357954545455  C 14.8674665178571 5.42755681818182  14.8046875 5.45454545454546  14.7321428571429 5.45454545454546  L 5.625 5.45454545454546  C 5.55245535714286 5.45454545454546  5.48967633928571 5.42755681818182  5.43666294642857 5.37357954545455  C 5.38364955357143 5.31960227272727  5.35714285714286 5.25568181818182  5.35714285714286 5.18181818181818  L 5.35714285714286 3.54545454545455  C 5.35714285714286 3.47159090909091  5.38364955357143 3.40767045454545  5.43666294642857 3.35369318181818  C 5.48967633928571 3.29971590909091  5.55245535714286 3.27272727272727  5.625 3.27272727272727  L 14.7321428571429 3.27272727272727  C 14.8046875 3.27272727272727  14.8674665178571 3.29971590909091  14.9204799107143 3.35369318181818  Z M 14.9204799107143 0.0809659090909087  C 14.9734933035714 0.134943181818182  15 0.198863636363635  15 0.272727272727272  L 15 1.90909090909091  C 15 1.98295454545454  14.9734933035714 2.046875  14.9204799107143 2.10085227272727  C 14.8674665178571 2.15482954545455  14.8046875 2.18181818181818  14.7321428571429 2.18181818181818  L 0.267857142857143 2.18181818181818  C 0.1953125 2.18181818181818  0.132533482142857 2.15482954545455  0.0795200892857143 2.10085227272727  C 0.0265066964285714 2.046875  0 1.98295454545454  0 1.90909090909091  L 0 0.272727272727272  C 0 0.198863636363635  0.0265066964285714 0.134943181818182  0.0795200892857143 0.0809659090909087  C 0.132533482142857 0.0269886363636345  0.1953125 0  0.267857142857143 0  L 14.7321428571429 0  C 14.8046875 0  14.8674665178571 0.0269886363636345  14.9204799107143 0.0809659090909087  Z " fill-rule="nonzero" fill="#000000" stroke="none" transform="matrix(1 0 0 1 835 889 )" />
  </g>
</svg>