<?xml version="1.0" encoding="utf-8"?>
<svg version="1.1" xmlns:xlink="http://www.w3.org/1999/xlink" width="15px" height="12px" xmlns="http://www.w3.org/2000/svg">
  <g transform="matrix(1 0 0 1 -925 -909 )">
    <path d="M 4.03846153846154 9  C 4.03846153846154 9.0625  4.01141826923077 9.11778846153846  3.95733173076923 9.16586538461539  L 1.64963942307692 11.0120192307692  C 1.58353365384615 11.0552884615385  1.51442307692308 11.0769230769231  1.44230769230769 11.0769230769231  C 1.37019230769231 11.0769230769231  1.30108173076923 11.0552884615385  1.23497596153846 11.0120192307692  C 1.18088942307692 10.9639423076923  1.15384615384615 10.9086538461538  1.15384615384615 10.8461538461538  C 1.15384615384615 10.7836538461538  1.18088942307692 10.7283653846154  1.23497596153846 10.6802884615385  L 3.54266826923077 8.83413461538462  C 3.60276442307692 8.79086538461539  3.671875 8.76923076923077  3.75 8.76923076923077  C 3.828125 8.76923076923077  3.89723557692308 8.79086538461539  3.95733173076923 8.83413461538462  C 4.01141826923077 8.88221153846154  4.03846153846154 8.9375  4.03846153846154 9  Z M 5.39963942307692 9.29567307692308  C 5.45372596153846 9.33894230769231  5.48076923076923 9.39423076923077  5.48076923076923 9.46153846153846  L 5.48076923076923 11.7692307692308  C 5.48076923076923 11.8365384615385  5.45372596153846 11.8918269230769  5.39963942307692 11.9350961538462  C 5.34555288461538 11.9783653846154  5.27644230769231 12  5.19230769230769 12  C 5.10817307692308 12  5.0390625 11.9783653846154  4.98497596153846 11.9350961538462  C 4.93088942307692 11.8918269230769  4.90384615384615 11.8365384615385  4.90384615384615 11.7692307692308  L 4.90384615384615 9.46153846153846  C 4.90384615384615 9.39423076923077  4.93088942307692 9.33894230769231  4.98497596153846 9.29567307692308  C 5.0390625 9.25240384615385  5.10817307692308 9.23076923076923  5.19230769230769 9.23076923076923  C 5.27644230769231 9.23076923076923  5.34555288461538 9.25240384615385  5.39963942307692 9.29567307692308  Z M 3.38040865384615 7.68028846153846  C 3.43449519230769 7.72355769230769  3.46153846153846 7.77884615384615  3.46153846153846 7.84615384615385  C 3.46153846153846 7.91346153846154  3.43449519230769 7.96875  3.38040865384615 8.01201923076923  C 3.32632211538462 8.05528846153846  3.25721153846154 8.07692307692308  3.17307692307692 8.07692307692308  L 0.288461538461538 8.07692307692308  C 0.204326923076923 8.07692307692308  0.135216346153846 8.05528846153846  0.0811298076923077 8.01201923076923  C 0.0270432692307692 7.96875  0 7.91346153846154  0 7.84615384615385  C 0 7.77884615384615  0.0270432692307692 7.72355769230769  0.0811298076923077 7.68028846153846  C 0.135216346153846 7.63701923076923  0.204326923076923 7.61538461538462  0.288461538461538 7.61538461538462  L 3.17307692307692 7.61538461538462  C 3.25721153846154 7.61538461538462  3.32632211538462 7.63701923076923  3.38040865384615 7.68028846153846  Z M 14.0985576923077 7.29807692307692  C 14.6033653846154 7.71153846153846  14.8557692307692 8.20192307692308  14.8557692307692 8.76923076923077  C 14.8557692307692 9.34615384615385  14.6003605769231 9.83413461538462  14.0895432692308 10.2331730769231  L 12.7644230769231 11.2860576923077  C 12.265625 11.6850961538462  11.6556490384615 11.8846153846154  10.9344951923077 11.8846153846154  C 10.2073317307692 11.8846153846154  9.59435096153846 11.6802884615385  9.09555288461539 11.2716346153846  L 6.08473557692308 8.85576923076923  C 5.95853365384615 8.75480769230769  5.83233173076923 8.62019230769231  5.70612980769231 8.45192307692308  L 7.86057692307692 8.32211538461539  L 10.3215144230769 10.2980769230769  C 10.4837740384615 10.4278846153846  10.6881009615385 10.4939903846154  10.9344951923077 10.4963942307692  C 11.1808894230769 10.4987980769231  11.3852163461538 10.4350961538462  11.5474759615385 10.3052884615385  L 12.8725961538462 9.25240384615385  C 13.0408653846154 9.11778846153846  13.125 8.95673076923077  13.125 8.76923076923077  C 13.125 8.57692307692308  13.0408653846154 8.41346153846154  12.8725961538462 8.27884615384615  L 10.4026442307692 6.29567307692308  L 10.5649038461538 4.57211538461539  C 10.7752403846154 4.67307692307692  10.9435096153846 4.77403846153846  11.0697115384615 4.875  L 14.0985576923077 7.29807692307692  Z M 8.91526442307692 3.14423076923077  C 9.04146634615385 3.24519230769231  9.16766826923077 3.37980769230769  9.29387019230769 3.54807692307692  L 7.13942307692308 3.67788461538462  L 4.67848557692308 1.70192307692308  C 4.51021634615385 1.56730769230769  4.30588942307692 1.5  4.06550480769231 1.5  C 3.83112980769231 1.5  3.62680288461539 1.56490384615385  3.45252403846154 1.69471153846154  L 2.12740384615385 2.74759615384615  C 1.95913461538462 2.88221153846154  1.875 3.04326923076923  1.875 3.23076923076923  C 1.875 3.42307692307692  1.95913461538462 3.58653846153846  2.12740384615385 3.72115384615385  L 4.59735576923077 5.69711538461539  L 4.43509615384615 7.42788461538462  C 4.22475961538462 7.32692307692308  4.05649038461538 7.22596153846154  3.93028846153846 7.125  L 0.901442307692308 4.70192307692308  C 0.396634615384615 4.28846153846154  0.144230769230769 3.79807692307692  0.144230769230769 3.23076923076923  C 0.144230769230769 2.65384615384615  0.399639423076923 2.16586538461538  0.910456730769231 1.76682692307692  L 2.23557692307692 0.713942307692307  C 2.734375 0.314903846153845  3.34435096153846 0.115384615384615  4.06550480769231 0.115384615384615  C 4.79266826923077 0.115384615384615  5.40564903846154 0.319711538461538  5.90444711538462 0.728365384615385  L 8.91526442307692 3.14423076923077  Z M 14.9188701923077 3.98798076923077  C 14.9729567307692 4.03125  15 4.08653846153846  15 4.15384615384615  C 15 4.22115384615385  14.9729567307692 4.27644230769231  14.9188701923077 4.31971153846154  C 14.8647836538462 4.36298076923077  14.7956730769231 4.38461538461539  14.7115384615385 4.38461538461539  L 11.8269230769231 4.38461538461539  C 11.7427884615385 4.38461538461539  11.6736778846154 4.36298076923077  11.6195913461538 4.31971153846154  C 11.5655048076923 4.27644230769231  11.5384615384615 4.22115384615385  11.5384615384615 4.15384615384615  C 11.5384615384615 4.08653846153846  11.5655048076923 4.03125  11.6195913461538 3.98798076923077  C 11.6736778846154 3.94471153846154  11.7427884615385 3.92307692307692  11.8269230769231 3.92307692307692  L 14.7115384615385 3.92307692307692  C 14.7956730769231 3.92307692307692  14.8647836538462 3.94471153846154  14.9188701923077 3.98798076923077  Z M 10.0150240384615 0.0649038461538463  C 10.0691105769231 0.108173076923078  10.0961538461538 0.163461538461538  10.0961538461538 0.230769230769231  L 10.0961538461538 2.53846153846154  C 10.0961538461538 2.60576923076923  10.0691105769231 2.66105769230769  10.0150240384615 2.70432692307692  C 9.9609375 2.74759615384615  9.89182692307693 2.76923076923077  9.80769230769231 2.76923076923077  C 9.72355769230769 2.76923076923077  9.65444711538462 2.74759615384615  9.60036057692308 2.70432692307692  C 9.54627403846154 2.66105769230769  9.51923076923077 2.60576923076923  9.51923076923077 2.53846153846154  L 9.51923076923077 0.230769230769231  C 9.51923076923077 0.163461538461538  9.54627403846154 0.108173076923078  9.60036057692308 0.0649038461538463  C 9.65444711538462 0.021634615384615  9.72355769230769 0  9.80769230769231 0  C 9.89182692307693 0  9.9609375 0.021634615384615  10.0150240384615 0.0649038461538463  Z M 13.8461538461538 1.15384615384615  C 13.8461538461538 1.21634615384615  13.8191105769231 1.27163461538461  13.7650240384615 1.31971153846154  L 11.4573317307692 3.16586538461539  C 11.3912259615385 3.20913461538462  11.3221153846154 3.23076923076923  11.25 3.23076923076923  C 11.1778846153846 3.23076923076923  11.1087740384615 3.20913461538462  11.0426682692308 3.16586538461539  C 10.9885817307692 3.11778846153846  10.9615384615385 3.0625  10.9615384615385 3  C 10.9615384615385 2.9375  10.9885817307692 2.88221153846154  11.0426682692308 2.83413461538462  L 13.3503605769231 0.987980769230769  C 13.4104567307692 0.944711538461539  13.4795673076923 0.923076923076922  13.5576923076923 0.923076923076922  C 13.6358173076923 0.923076923076922  13.7049278846154 0.944711538461539  13.7650240384615 0.987980769230769  C 13.8191105769231 1.03605769230769  13.8461538461538 1.09134615384615  13.8461538461538 1.15384615384615  Z " fill-rule="nonzero" fill="#000000" stroke="none" transform="matrix(1 0 0 1 925 909 )" />
  </g>
</svg>