<?xml version="1.0" encoding="utf-8"?>
<svg version="1.1" xmlns:xlink="http://www.w3.org/1999/xlink" width="15px" height="12px" xmlns="http://www.w3.org/2000/svg">
  <g transform="matrix(1 0 0 1 -515 -909 )">
    <path d="M 5.78480113636364 10.36328125  C 5.81321022727273 10.60546875  5.85582386363636 10.7786458333333  5.91264204545455 10.8828125  C 6.43821022727273 11.0494791666667  6.93536931818182 11.1328125  7.40411931818182 11.1328125  C 10.0745738636364 11.1328125  11.4098011363636 10.2604166666667  11.4098011363636 8.515625  C 11.4098011363636 7.921875  11.2642045454545 7.453125  10.9730113636364 7.109375  C 10.78125 6.88020833333333  10.5628551136364 6.6875  10.3178267045455 6.53125  C 10.0727982954545 6.375  9.83309659090909 6.25390625  9.59872159090909 6.16796875  C 9.36434659090909 6.08203125  9.07848011363637 6.01692708333333  8.74112215909091 5.97265625  C 8.40376420454546 5.92838541666667  8.10546875 5.90104166666667  7.84623579545455 5.890625  C 7.58700284090909 5.88020833333333  7.25142045454546 5.875  6.83948863636364 5.875  C 6.32102272727273 5.875  5.96235795454546 5.90104166666667  5.76349431818182 5.953125  C 5.76349431818182 6.22916666666667  5.76171875 6.64322916666667  5.75816761363636 7.1953125  C 5.75461647727273 7.74739583333333  5.75284090909091 8.15885416666667  5.75284090909091 8.4296875  C 5.75284090909091 8.47135416666667  5.74928977272727 8.64713541666667  5.7421875 8.95703125  C 5.73508522727273 9.26692708333333  5.73330965909091 9.51822916666667  5.73686079545455 9.7109375  C 5.74041193181818 9.90364583333333  5.75639204545455 10.12109375  5.78480113636364 10.36328125  Z M 5.75284090909091 4.515625  C 5.75284090909091 4.75520833333333  5.75639204545455 4.93489583333333  5.76349431818182 5.0546875  C 6.06178977272727 5.09114583333333  6.44886363636364 5.109375  6.92471590909091 5.109375  C 7.50710227272727 5.109375  8.01491477272727 5.07552083333333  8.44815340909091 5.0078125  C 8.88139204545455 4.94010416666667  9.27201704545455 4.82421875  9.62002840909091 4.66015625  C 9.96803977272727 4.49609375  10.2325994318182 4.26302083333333  10.4137073863636 3.9609375  C 10.5948153409091 3.65885416666667  10.6853693181818 3.2890625  10.6853693181818 2.8515625  C 10.6853693181818 2.48697916666667  10.5823863636364 2.16796875  10.3764204545455 1.89453125  C 10.1704545454545 1.62109375  9.88991477272727 1.40755208333333  9.53480113636364 1.25390625  C 9.1796875 1.10026041666667  8.79616477272727 0.986979166666666  8.38423295454546 0.9140625  C 7.97230113636364 0.841145833333333  7.53196022727273 0.8046875  7.06321022727273 0.8046875  C 6.70809659090909 0.8046875  6.24644886363636 0.838541666666667  5.67826704545455 0.90625  C 5.67826704545455 1.16666666666667  5.69247159090909 1.55989583333333  5.72088068181818 2.0859375  C 5.74928977272727 2.61197916666667  5.76349431818182 3.0078125  5.76349431818182 3.2734375  C 5.76349431818182 3.4140625  5.76171875 3.62239583333333  5.75816761363636 3.8984375  C 5.75461647727273 4.17447916666667  5.75284090909091 4.38020833333333  5.75284090909091 4.515625  Z M 2.4609375 11.90625  C 1.03338068181818 11.9635416666667  0.213068181818182 11.9947916666667  0 12  L 0.0213068181818182 11.265625  C 0.127840909090909 11.2447916666667  0.4296875 11.203125  0.926846590909091 11.140625  C 1.42400568181818 11.078125  1.80042613636364 11.0078125  2.05610795454545 10.9296875  C 2.10582386363636 10.8671875  2.15021306818182 10.796875  2.18927556818182 10.71875  C 2.22833806818182 10.640625  2.25852272727273 10.5533854166667  2.27982954545455 10.45703125  C 2.30113636363636 10.3606770833333  2.32066761363636 10.2760416666667  2.33842329545455 10.203125  C 2.35617897727273 10.1302083333333  2.36683238636364 10.0325520833333  2.37038352272727 9.91015625  C 2.37393465909091 9.78776041666667  2.37571022727273 9.69921875  2.37571022727273 9.64453125  L 2.37571022727273 9.3671875  L 2.37571022727273 9.1328125  C 2.37571022727273 4.01822916666667  2.29758522727273 1.34895833333333  2.14133522727273 1.125  C 2.11292613636364 1.08333333333333  2.03480113636364 1.04557291666667  1.90696022727273 1.01171875  C 1.77911931818182 0.977864583333332  1.62109375 0.94921875  1.43288352272727 0.92578125  C 1.24467329545455 0.90234375  1.06889204545455 0.884114583333332  0.905539772727273 0.87109375  C 0.7421875 0.858072916666666  0.569957386363636 0.846354166666666  0.388849431818182 0.8359375  C 0.207741477272727 0.825520833333332  0.0994318181818182 0.817708333333333  0.0639204545454545 0.8125  L 0.0213068181818182 0.1640625  C 0.717329545454546 0.153645833333332  1.92471590909091 0.123697916666667  3.64346590909091 0.0742187500000004  C 5.36221590909091 0.0247395833333317  6.68678977272727 0  7.6171875 0  C 7.78053977272727 0  8.02201704545455 0.00130208333333171  8.34161931818182 0.00390625000000044  C 8.66122159090909 0.00651041666666652  8.90269886363637 0.00781249999999956  9.06605113636364 0.00781249999999956  C 9.56321022727273 0.00781249999999956  10.0479403409091 0.0416666666666665  10.5202414772727 0.109375  C 10.9925426136364 0.177083333333332  11.4488636363636 0.286458333333332  11.8892045454545 0.4375  C 12.3295454545455 0.588541666666666  12.7130681818182 0.7734375  13.0397727272727 0.9921875  C 13.3664772727273 1.2109375  13.6292613636364 1.48307291666667  13.828125 1.80859375  C 14.0269886363636 2.13411458333333  14.1264204545455 2.4921875  14.1264204545455 2.8828125  C 14.1264204545455 3.15364583333333  14.0678267045455 3.40234375  13.9506392045455 3.62890625  C 13.8334517045455 3.85546875  13.6949573863636 4.04296875  13.53515625 4.19140625  C 13.3753551136364 4.33984375  13.1463068181818 4.48958333333333  12.8480113636364 4.640625  C 12.5497159090909 4.79166666666667  12.2904829545455 4.90885416666667  12.0703125 4.9921875  C 11.8501420454545 5.07552083333333  11.5518465909091 5.1796875  11.1754261363636 5.3046875  C 12.2691761363636 5.48697916666667  13.1800426136364 5.8359375  13.9080255681818 6.3515625  C 14.6360085227273 6.8671875  15 7.51302083333333  15 8.2890625  C 15 8.80989583333333  14.8757102272727 9.27734375  14.6271306818182 9.69140625  C 14.3785511363636 10.10546875  14.0465198863636 10.4453125  13.6310369318182 10.7109375  C 13.2155539772727 10.9765625  12.7254971590909 11.19921875  12.1608664772727 11.37890625  C 11.5962357954545 11.55859375  11.015625 11.6848958333333  10.4190340909091 11.7578125  C 9.82244318181818 11.8307291666667  9.19744318181818 11.8671875  8.54403409090909 11.8671875  C 8.23153409090909 11.8671875  7.76278409090909 11.859375  7.13778409090909 11.84375  C 6.51278409090909 11.828125  6.04403409090909 11.8203125  5.73153409090909 11.8203125  C 4.97869318181818 11.8203125  3.88849431818182 11.8489583333333  2.4609375 11.90625  Z " fill-rule="nonzero" fill="#000000" stroke="none" transform="matrix(1 0 0 1 515 909 )" />
  </g>
</svg>