<?xml version="1.0" encoding="utf-8"?>
<svg version="1.1" xmlns:xlink="http://www.w3.org/1999/xlink" width="15px" height="12px" xmlns="http://www.w3.org/2000/svg">
  <g transform="matrix(1 0 0 1 -405 -889 )">
    <path d="M 6.42857142857143 3.42857142857143  L 6.42857142857143 11.1428571428571  L 13.9285714285714 11.1428571428571  L 13.9285714285714 6.85714285714286  L 10.4464285714286 6.85714285714286  C 10.2232142857143 6.85714285714286  10.0334821428571 6.79464285714286  9.87723214285714 6.66964285714286  C 9.72098214285714 6.54464285714286  9.64285714285714 6.39285714285714  9.64285714285714 6.21428571428571  L 9.64285714285714 3.42857142857143  L 6.42857142857143 3.42857142857143  Z M 8.49190848214286 1.65066964285714  C 8.544921875 1.60825892857143  8.57142857142857 1.55803571428571  8.57142857142857 1.5  L 8.57142857142857 1.07142857142857  C 8.57142857142857 1.01339285714286  8.544921875 0.963169642857142  8.49190848214286 0.920758928571428  C 8.43889508928572 0.878348214285713  8.37611607142857 0.857142857142857  8.30357142857143 0.857142857142857  L 2.41071428571429 0.857142857142857  C 2.33816964285714 0.857142857142857  2.275390625 0.878348214285713  2.22237723214286 0.920758928571428  C 2.16936383928571 0.963169642857142  2.14285714285714 1.01339285714286  2.14285714285714 1.07142857142857  L 2.14285714285714 1.5  C 2.14285714285714 1.55803571428571  2.16936383928571 1.60825892857143  2.22237723214286 1.65066964285714  C 2.275390625 1.69308035714286  2.33816964285714 1.71428571428571  2.41071428571429 1.71428571428571  L 8.30357142857143 1.71428571428571  C 8.37611607142857 1.71428571428571  8.43889508928572 1.69308035714286  8.49190848214286 1.65066964285714  Z M 10.7142857142857 3.99776785714286  L 10.7142857142857 6  L 13.2170758928571 6  L 10.7142857142857 3.99776785714286  Z M 14.8325892857143 6.26785714285714  C 14.9441964285714 6.48214285714286  15 6.67857142857143  15 6.85714285714286  L 15 11.3571428571429  C 15 11.5357142857143  14.921875 11.6875  14.765625 11.8125  C 14.609375 11.9375  14.4196428571429 12  14.1964285714286 12  L 6.16071428571429 12  C 5.9375 12  5.74776785714286 11.9375  5.59151785714286 11.8125  C 5.43526785714286 11.6875  5.35714285714286 11.5357142857143  5.35714285714286 11.3571428571429  L 5.35714285714286 10.2857142857143  L 0.803571428571428 10.2857142857143  C 0.580357142857143 10.2857142857143  0.390625 10.2232142857143  0.234375 10.0982142857143  C 0.078125 9.97321428571428  0 9.82142857142857  0 9.64285714285714  L 0 0.642857142857143  C 0 0.464285714285714  0.078125 0.3125  0.234375 0.1875  C 0.390625 0.0625000000000004  0.580357142857143 0  0.803571428571428 0  L 9.91071428571428 0  C 10.1339285714286 0  10.3236607142857 0.0625000000000004  10.4799107142857 0.1875  C 10.6361607142857 0.3125  10.7142857142857 0.464285714285714  10.7142857142857 0.642857142857143  L 10.7142857142857 2.83928571428571  C 10.8314732142857 2.89732142857143  10.9319196428571 2.95982142857143  11.015625 3.02678571428571  L 14.4308035714286 5.75892857142857  C 14.5870535714286 5.88392857142857  14.7209821428571 6.05357142857143  14.8325892857143 6.26785714285714  Z " fill-rule="nonzero" fill="#000000" stroke="none" transform="matrix(1 0 0 1 405 889 )" />
  </g>
</svg>