<?xml version="1.0" encoding="utf-8"?>
<svg version="1.1" xmlns:xlink="http://www.w3.org/1999/xlink" width="15px" height="12px" xmlns="http://www.w3.org/2000/svg">
  <g transform="matrix(1 0 0 1 -895 -889 )">
    <path d="M 4.05133928571429 8.96590909090909  C 4.20758928571429 9.125  4.28571428571429 9.31818181818182  4.28571428571429 9.54545454545455  L 4.28571428571429 11.1818181818182  C 4.28571428571429 11.4090909090909  4.20758928571429 11.6022727272727  4.05133928571429 11.7613636363636  C 3.89508928571429 11.9204545454545  3.70535714285714 12  3.48214285714286 12  L 0.803571428571428 12  C 0.580357142857143 12  0.390625 11.9204545454545  0.234375 11.7613636363636  C 0.078125 11.6022727272727  0 11.4090909090909  0 11.1818181818182  L 0 9.54545454545455  C 0 9.31818181818182  0.078125 9.125  0.234375 8.96590909090909  C 0.390625 8.80681818181818  0.580357142857143 8.72727272727273  0.803571428571428 8.72727272727273  L 3.48214285714286 8.72727272727273  C 3.70535714285714 8.72727272727273  3.89508928571429 8.80681818181818  4.05133928571429 8.96590909090909  Z M 4.05133928571429 4.60227272727273  C 4.20758928571429 4.76136363636363  4.28571428571429 4.95454545454545  4.28571428571429 5.18181818181818  L 4.28571428571429 6.81818181818182  C 4.28571428571429 7.04545454545455  4.20758928571429 7.23863636363636  4.05133928571429 7.39772727272727  C 3.89508928571429 7.55681818181818  3.70535714285714 7.63636363636364  3.48214285714286 7.63636363636364  L 0.803571428571428 7.63636363636364  C 0.580357142857143 7.63636363636364  0.390625 7.55681818181818  0.234375 7.39772727272727  C 0.078125 7.23863636363636  0 7.04545454545455  0 6.81818181818182  L 0 5.18181818181818  C 0 4.95454545454545  0.078125 4.76136363636363  0.234375 4.60227272727273  C 0.390625 4.44318181818182  0.580357142857143 4.36363636363636  0.803571428571428 4.36363636363636  L 3.48214285714286 4.36363636363636  C 3.70535714285714 4.36363636363636  3.89508928571429 4.44318181818182  4.05133928571429 4.60227272727273  Z M 9.40848214285714 8.96590909090909  C 9.56473214285714 9.125  9.64285714285714 9.31818181818182  9.64285714285714 9.54545454545455  L 9.64285714285714 11.1818181818182  C 9.64285714285714 11.4090909090909  9.56473214285714 11.6022727272727  9.40848214285714 11.7613636363636  C 9.25223214285714 11.9204545454545  9.0625 12  8.83928571428572 12  L 6.16071428571429 12  C 5.9375 12  5.74776785714286 11.9204545454545  5.59151785714286 11.7613636363636  C 5.43526785714286 11.6022727272727  5.35714285714286 11.4090909090909  5.35714285714286 11.1818181818182  L 5.35714285714286 9.54545454545455  C 5.35714285714286 9.31818181818182  5.43526785714286 9.125  5.59151785714286 8.96590909090909  C 5.74776785714286 8.80681818181818  5.9375 8.72727272727273  6.16071428571429 8.72727272727273  L 8.83928571428572 8.72727272727273  C 9.0625 8.72727272727273  9.25223214285714 8.80681818181818  9.40848214285714 8.96590909090909  Z M 4.05133928571429 0.238636363636364  C 4.20758928571429 0.397727272727272  4.28571428571429 0.59090909090909  4.28571428571429 0.818181818181819  L 4.28571428571429 2.45454545454546  C 4.28571428571429 2.68181818181818  4.20758928571429 2.875  4.05133928571429 3.03409090909091  C 3.89508928571429 3.19318181818182  3.70535714285714 3.27272727272727  3.48214285714286 3.27272727272727  L 0.803571428571428 3.27272727272727  C 0.580357142857143 3.27272727272727  0.390625 3.19318181818182  0.234375 3.03409090909091  C 0.078125 2.875  0 2.68181818181818  0 2.45454545454546  L 0 0.818181818181819  C 0 0.59090909090909  0.078125 0.397727272727272  0.234375 0.238636363636364  C 0.390625 0.0795454545454541  0.580357142857143 0  0.803571428571428 0  L 3.48214285714286 0  C 3.70535714285714 0  3.89508928571429 0.0795454545454541  4.05133928571429 0.238636363636364  Z M 9.40848214285714 4.60227272727273  C 9.56473214285714 4.76136363636363  9.64285714285714 4.95454545454545  9.64285714285714 5.18181818181818  L 9.64285714285714 6.81818181818182  C 9.64285714285714 7.04545454545455  9.56473214285714 7.23863636363636  9.40848214285714 7.39772727272727  C 9.25223214285714 7.55681818181818  9.0625 7.63636363636364  8.83928571428572 7.63636363636364  L 6.16071428571429 7.63636363636364  C 5.9375 7.63636363636364  5.74776785714286 7.55681818181818  5.59151785714286 7.39772727272727  C 5.43526785714286 7.23863636363636  5.35714285714286 7.04545454545455  5.35714285714286 6.81818181818182  L 5.35714285714286 5.18181818181818  C 5.35714285714286 4.95454545454545  5.43526785714286 4.76136363636363  5.59151785714286 4.60227272727273  C 5.74776785714286 4.44318181818182  5.9375 4.36363636363636  6.16071428571429 4.36363636363636  L 8.83928571428572 4.36363636363636  C 9.0625 4.36363636363636  9.25223214285714 4.44318181818182  9.40848214285714 4.60227272727273  Z M 14.765625 8.96590909090909  C 14.921875 9.125  15 9.31818181818182  15 9.54545454545455  L 15 11.1818181818182  C 15 11.4090909090909  14.921875 11.6022727272727  14.765625 11.7613636363636  C 14.609375 11.9204545454545  14.4196428571429 12  14.1964285714286 12  L 11.5178571428571 12  C 11.2946428571429 12  11.1049107142857 11.9204545454545  10.9486607142857 11.7613636363636  C 10.7924107142857 11.6022727272727  10.7142857142857 11.4090909090909  10.7142857142857 11.1818181818182  L 10.7142857142857 9.54545454545455  C 10.7142857142857 9.31818181818182  10.7924107142857 9.125  10.9486607142857 8.96590909090909  C 11.1049107142857 8.80681818181818  11.2946428571429 8.72727272727273  11.5178571428571 8.72727272727273  L 14.1964285714286 8.72727272727273  C 14.4196428571429 8.72727272727273  14.609375 8.80681818181818  14.765625 8.96590909090909  Z M 9.40848214285714 0.238636363636364  C 9.56473214285714 0.397727272727272  9.64285714285714 0.59090909090909  9.64285714285714 0.818181818181819  L 9.64285714285714 2.45454545454546  C 9.64285714285714 2.68181818181818  9.56473214285714 2.875  9.40848214285714 3.03409090909091  C 9.25223214285714 3.19318181818182  9.0625 3.27272727272727  8.83928571428572 3.27272727272727  L 6.16071428571429 3.27272727272727  C 5.9375 3.27272727272727  5.74776785714286 3.19318181818182  5.59151785714286 3.03409090909091  C 5.43526785714286 2.875  5.35714285714286 2.68181818181818  5.35714285714286 2.45454545454546  L 5.35714285714286 0.818181818181819  C 5.35714285714286 0.59090909090909  5.43526785714286 0.397727272727272  5.59151785714286 0.238636363636364  C 5.74776785714286 0.0795454545454541  5.9375 0  6.16071428571429 0  L 8.83928571428572 0  C 9.0625 0  9.25223214285714 0.0795454545454541  9.40848214285714 0.238636363636364  Z M 14.765625 4.60227272727273  C 14.921875 4.76136363636363  15 4.95454545454545  15 5.18181818181818  L 15 6.81818181818182  C 15 7.04545454545455  14.921875 7.23863636363636  14.765625 7.39772727272727  C 14.609375 7.55681818181818  14.4196428571429 7.63636363636364  14.1964285714286 7.63636363636364  L 11.5178571428571 7.63636363636364  C 11.2946428571429 7.63636363636364  11.1049107142857 7.55681818181818  10.9486607142857 7.39772727272727  C 10.7924107142857 7.23863636363636  10.7142857142857 7.04545454545455  10.7142857142857 6.81818181818182  L 10.7142857142857 5.18181818181818  C 10.7142857142857 4.95454545454545  10.7924107142857 4.76136363636363  10.9486607142857 4.60227272727273  C 11.1049107142857 4.44318181818182  11.2946428571429 4.36363636363636  11.5178571428571 4.36363636363636  L 14.1964285714286 4.36363636363636  C 14.4196428571429 4.36363636363636  14.609375 4.44318181818182  14.765625 4.60227272727273  Z M 14.765625 0.238636363636364  C 14.921875 0.397727272727272  15 0.59090909090909  15 0.818181818181819  L 15 2.45454545454546  C 15 2.68181818181818  14.921875 2.875  14.765625 3.03409090909091  C 14.609375 3.19318181818182  14.4196428571429 3.27272727272727  14.1964285714286 3.27272727272727  L 11.5178571428571 3.27272727272727  C 11.2946428571429 3.27272727272727  11.1049107142857 3.19318181818182  10.9486607142857 3.03409090909091  C 10.7924107142857 2.875  10.7142857142857 2.68181818181818  10.7142857142857 2.45454545454546  L 10.7142857142857 0.818181818181819  C 10.7142857142857 0.59090909090909  10.7924107142857 0.397727272727272  10.9486607142857 0.238636363636364  C 11.1049107142857 0.0795454545454541  11.2946428571429 0  11.5178571428571 0  L 14.1964285714286 0  C 14.4196428571429 0  14.609375 0.0795454545454541  14.765625 0.238636363636364  Z " fill-rule="nonzero" fill="#000000" stroke="none" transform="matrix(1 0 0 1 895 889 )" />
  </g>
</svg>