<?xml version="1.0" encoding="utf-8"?>
<svg version="1.1" xmlns:xlink="http://www.w3.org/1999/xlink" width="15px" height="12px" xmlns="http://www.w3.org/2000/svg">
  <g transform="matrix(1 0 0 1 -806 -889 )">
    <path d="M 2.06333705357143 9.89914772727273  C 2.11635044642857 9.953125  2.14285714285714 10.0170454545455  2.14285714285714 10.0909090909091  L 2.14285714285714 11.7272727272727  C 2.14285714285714 11.8011363636364  2.11635044642857 11.8650568181818  2.06333705357143 11.9190340909091  C 2.01032366071429 11.9730113636364  1.94754464285714 12  1.875 12  L 0.267857142857143 12  C 0.1953125 12  0.132533482142857 11.9730113636364  0.0795200892857143 11.9190340909091  C 0.0265066964285714 11.8650568181818  0 11.8011363636364  0 11.7272727272727  L 0 10.0909090909091  C 0 10.0170454545455  0.0265066964285714 9.953125  0.0795200892857143 9.89914772727273  C 0.132533482142857 9.84517045454546  0.1953125 9.81818181818182  0.267857142857143 9.81818181818182  L 1.875 9.81818181818182  C 1.94754464285714 9.81818181818182  2.01032366071429 9.84517045454546  2.06333705357143 9.89914772727273  Z M 2.06333705357143 6.62642045454546  C 2.11635044642857 6.68039772727273  2.14285714285714 6.74431818181818  2.14285714285714 6.81818181818182  L 2.14285714285714 8.45454545454546  C 2.14285714285714 8.52840909090909  2.11635044642857 8.59232954545454  2.06333705357143 8.64630681818182  C 2.01032366071429 8.70028409090909  1.94754464285714 8.72727272727273  1.875 8.72727272727273  L 0.267857142857143 8.72727272727273  C 0.1953125 8.72727272727273  0.132533482142857 8.70028409090909  0.0795200892857143 8.64630681818182  C 0.0265066964285714 8.59232954545454  0 8.52840909090909  0 8.45454545454546  L 0 6.81818181818182  C 0 6.74431818181818  0.0265066964285714 6.68039772727273  0.0795200892857143 6.62642045454546  C 0.132533482142857 6.57244318181818  0.1953125 6.54545454545455  0.267857142857143 6.54545454545455  L 1.875 6.54545454545455  C 1.94754464285714 6.54545454545455  2.01032366071429 6.57244318181818  2.06333705357143 6.62642045454546  Z M 2.06333705357143 3.35369318181818  C 2.11635044642857 3.40767045454545  2.14285714285714 3.47159090909091  2.14285714285714 3.54545454545455  L 2.14285714285714 5.18181818181818  C 2.14285714285714 5.25568181818182  2.11635044642857 5.31960227272727  2.06333705357143 5.37357954545455  C 2.01032366071429 5.42755681818182  1.94754464285714 5.45454545454546  1.875 5.45454545454546  L 0.267857142857143 5.45454545454546  C 0.1953125 5.45454545454546  0.132533482142857 5.42755681818182  0.0795200892857143 5.37357954545455  C 0.0265066964285714 5.31960227272727  0 5.25568181818182  0 5.18181818181818  L 0 3.54545454545455  C 0 3.47159090909091  0.0265066964285714 3.40767045454545  0.0795200892857143 3.35369318181818  C 0.132533482142857 3.29971590909091  0.1953125 3.27272727272727  0.267857142857143 3.27272727272727  L 1.875 3.27272727272727  C 1.94754464285714 3.27272727272727  2.01032366071429 3.29971590909091  2.06333705357143 3.35369318181818  Z M 14.9204799107143 9.89914772727273  C 14.9734933035714 9.953125  15 10.0170454545455  15 10.0909090909091  L 15 11.7272727272727  C 15 11.8011363636364  14.9734933035714 11.8650568181818  14.9204799107143 11.9190340909091  C 14.8674665178571 11.9730113636364  14.8046875 12  14.7321428571429 12  L 3.48214285714286 12  C 3.40959821428571 12  3.34681919642857 11.9730113636364  3.29380580357143 11.9190340909091  C 3.24079241071429 11.8650568181818  3.21428571428571 11.8011363636364  3.21428571428571 11.7272727272727  L 3.21428571428571 10.0909090909091  C 3.21428571428571 10.0170454545455  3.24079241071429 9.953125  3.29380580357143 9.89914772727273  C 3.34681919642857 9.84517045454546  3.40959821428571 9.81818181818182  3.48214285714286 9.81818181818182  L 14.7321428571429 9.81818181818182  C 14.8046875 9.81818181818182  14.8674665178571 9.84517045454546  14.9204799107143 9.89914772727273  Z M 2.06333705357143 0.0809659090909087  C 2.11635044642857 0.134943181818182  2.14285714285714 0.198863636363635  2.14285714285714 0.272727272727272  L 2.14285714285714 1.90909090909091  C 2.14285714285714 1.98295454545454  2.11635044642857 2.046875  2.06333705357143 2.10085227272727  C 2.01032366071429 2.15482954545455  1.94754464285714 2.18181818181818  1.875 2.18181818181818  L 0.267857142857143 2.18181818181818  C 0.1953125 2.18181818181818  0.132533482142857 2.15482954545455  0.0795200892857143 2.10085227272727  C 0.0265066964285714 2.046875  0 1.98295454545454  0 1.90909090909091  L 0 0.272727272727272  C 0 0.198863636363635  0.0265066964285714 0.134943181818182  0.0795200892857143 0.0809659090909087  C 0.132533482142857 0.0269886363636345  0.1953125 0  0.267857142857143 0  L 1.875 0  C 1.94754464285714 0  2.01032366071429 0.0269886363636345  2.06333705357143 0.0809659090909087  Z M 14.9204799107143 6.62642045454546  C 14.9734933035714 6.68039772727273  15 6.74431818181818  15 6.81818181818182  L 15 8.45454545454546  C 15 8.52840909090909  14.9734933035714 8.59232954545454  14.9204799107143 8.64630681818182  C 14.8674665178571 8.70028409090909  14.8046875 8.72727272727273  14.7321428571429 8.72727272727273  L 3.48214285714286 8.72727272727273  C 3.40959821428571 8.72727272727273  3.34681919642857 8.70028409090909  3.29380580357143 8.64630681818182  C 3.24079241071429 8.59232954545454  3.21428571428571 8.52840909090909  3.21428571428571 8.45454545454546  L 3.21428571428571 6.81818181818182  C 3.21428571428571 6.74431818181818  3.24079241071429 6.68039772727273  3.29380580357143 6.62642045454546  C 3.34681919642857 6.57244318181818  3.40959821428571 6.54545454545455  3.48214285714286 6.54545454545455  L 14.7321428571429 6.54545454545455  C 14.8046875 6.54545454545455  14.8674665178571 6.57244318181818  14.9204799107143 6.62642045454546  Z M 14.9204799107143 3.35369318181818  C 14.9734933035714 3.40767045454545  15 3.47159090909091  15 3.54545454545455  L 15 5.18181818181818  C 15 5.25568181818182  14.9734933035714 5.31960227272727  14.9204799107143 5.37357954545455  C 14.8674665178571 5.42755681818182  14.8046875 5.45454545454546  14.7321428571429 5.45454545454546  L 3.48214285714286 5.45454545454546  C 3.40959821428571 5.45454545454546  3.34681919642857 5.42755681818182  3.29380580357143 5.37357954545455  C 3.24079241071429 5.31960227272727  3.21428571428571 5.25568181818182  3.21428571428571 5.18181818181818  L 3.21428571428571 3.54545454545455  C 3.21428571428571 3.47159090909091  3.24079241071429 3.40767045454545  3.29380580357143 3.35369318181818  C 3.34681919642857 3.29971590909091  3.40959821428571 3.27272727272727  3.48214285714286 3.27272727272727  L 14.7321428571429 3.27272727272727  C 14.8046875 3.27272727272727  14.8674665178571 3.29971590909091  14.9204799107143 3.35369318181818  Z M 14.9204799107143 0.0809659090909087  C 14.9734933035714 0.134943181818182  15 0.198863636363635  15 0.272727272727272  L 15 1.90909090909091  C 15 1.98295454545454  14.9734933035714 2.046875  14.9204799107143 2.10085227272727  C 14.8674665178571 2.15482954545455  14.8046875 2.18181818181818  14.7321428571429 2.18181818181818  L 3.48214285714286 2.18181818181818  C 3.40959821428571 2.18181818181818  3.34681919642857 2.15482954545455  3.29380580357143 2.10085227272727  C 3.24079241071429 2.046875  3.21428571428571 1.98295454545454  3.21428571428571 1.90909090909091  L 3.21428571428571 0.272727272727272  C 3.21428571428571 0.198863636363635  3.24079241071429 0.134943181818182  3.29380580357143 0.0809659090909087  C 3.34681919642857 0.0269886363636345  3.40959821428571 0  3.48214285714286 0  L 14.7321428571429 0  C 14.8046875 0  14.8674665178571 0.0269886363636345  14.9204799107143 0.0809659090909087  Z " fill-rule="nonzero" fill="#000000" stroke="none" transform="matrix(1 0 0 1 806 889 )" />
  </g>
</svg>