<?xml version="1.0" encoding="utf-8"?>
<svg version="1.1" xmlns:xlink="http://www.w3.org/1999/xlink" width="15px" height="12px" xmlns="http://www.w3.org/2000/svg">
  <g transform="matrix(1 0 0 1 -779 -889 )">
    <path d="M 2.83624085537423 10.2501402131239  C 3.00506471581317 10.4161525518789  3.08947664603264 10.6135726303982  3.08947664603264 10.842400448682  C 3.08947664603264 11.2013460459899  2.93612830613393 11.4840157038699  2.62943162633652 11.6904094223219  C 2.32273494653911 11.896803140774  1.94147439504783 12  1.48564997186269 12  C 0.889138998311761 12  0.405177265053461 11.8519349411105  0.0337647720877885 11.5558048233315  L 0.514912774338773 10.9635445877734  C 0.790658413055712 11.1654514862591  1.08891389983118 11.266404935502  1.40967923466517 11.266404935502  C 1.57287563308948 11.266404935502  1.71496904895892 11.2338754907459  1.83595948227349 11.1688166012339  C 1.95694991558807 11.1037577117218  2.01744513224536 11.0084127874369  2.01744513224536 10.8827818283791  C 2.01744513224536 10.5956253505328  1.72200337647721 10.469994391475  1.13111986494091 10.5058889512058  L 0.911648846370287 10.1289960740325  C 0.956668542487338 10.084127874369  1.0481148002251 9.98653954010095  1.18598761958357 9.83623107122827  C 1.32386043894204 9.68592260235558  1.44344400675295 9.56477846326416  1.54473832301632 9.47279865395401  C 1.64603263927969 9.38081884464386  1.75014068655037 9.29444756029164  1.85706246482836 9.21368480089736  L 1.85706246482836 9.20695457094784  C 1.76702307259426 9.20695457094784  1.63055711873945 9.20919798093101  1.44766460326393 9.21368480089736  C 1.26477208778841 9.21817162086371  1.1283061339336 9.22041503084689  1.03826674169949 9.22041503084689  L 1.03826674169949 9.57711721817162  L 0.143500281373101 9.57711721817162  L 0.143500281373101 8.55412226584408  L 2.95441755768149 8.55412226584408  L 2.95441755768149 9.14638250140213  L 2.15250422059651 9.92035894559731  C 2.43950478334271 9.9742007851935  2.66741699493528 10.084127874369  2.83624085537423 10.2501402131239  Z M 2.22003376477209 6.6225462703309  L 3.10635903207653 6.6225462703309  L 3.10635903207653 7.6926528323051  L 0.0506471581316827 7.6926528323051  C 0.0168823860438943 7.53112731351655  0 7.40998317442513  0 7.32922041503085  C 0 7.10039259674705  0.0661226786719191 6.89175546831183  0.198368036015757 6.70330902972518  C 0.330613393359595 6.51486259113853  0.489589195272932 6.36231071228267  0.675295441755768 6.2456533931576  C 0.861001688238604 6.12899607403253  1.04670793472144 6.02243409983174  1.23241418120428 5.92596747055524  C 1.41812042768711 5.82950084127874  1.57709622960045 5.73191250701066  1.70934158694429 5.63320246775098  C 1.84158694428813 5.53449242849131  1.90770962296004 5.43353897924846  1.90770962296004 5.33034212002243  C 1.90770962296004 5.21817162086371  1.86691052335397 5.1318003365115  1.78531232414181 5.07122826696579  C 1.70371412492966 5.01065619742008  1.59257175014069 4.98037016264722  1.4518851997749 4.98037016264722  C 1.19302194710186 4.98037016264722  0.965109735509285 5.11048794167134  0.768148564997186 5.37072349971957  L 0.0506471581316827 4.9736399326977  C 0.185706246482836 4.74481211441391  0.386888013505909 4.56646102075154  0.6541924592009 4.4385866517106  C 0.921496904895892 4.31071228266966  1.2183455261677 4.24677509814919  1.54473832301632 4.24677509814919  C 1.95554305008441 4.24677509814919  2.30163196398424 4.33987661245092  2.58300506471581 4.5260796410544  C 2.86437816544738 4.71228266965788  3.00506471581317 4.964666292765  3.00506471581317 5.28323051037577  C 3.00506471581317 5.50757150869321  2.90939786156443 5.71284352215367  2.71806415306697 5.89904655075715  C 2.5267304445695 6.08524957936063  2.31570061902082 6.22994952327538  2.08497467642093 6.3331463825014  C 1.85424873382105 6.43634324172742  1.64181204276871 6.54963544587773  1.44766460326393 6.67302299495233  C 1.25351716375914 6.79641054402692  1.15362971299944 6.91418956814358  1.14800225098481 7.0263600673023  L 2.22003376477209 7.0263600673023  L 2.22003376477209 6.6225462703309  Z M 14.9198086662915 8.61805945036455  C 14.9732695554305 8.66068424004487  15 8.71116096466629  15 8.76948962422883  L 15 10.0616937745373  C 15 10.1200224340998  14.9732695554305 10.1704991587213  14.9198086662915 10.2131239484016  C 14.8663477771525 10.2557487380819  14.8030388294879 10.277061132922  14.7298818232977 10.277061132922  L 4.46539110861002 10.277061132922  C 4.39223410241981 10.277061132922  4.32892515475521 10.2557487380819  4.27546426561621 10.2131239484016  C 4.22200337647721 10.1704991587213  4.19527293190771 10.1200224340998  4.19527293190771 10.0616937745373  L 4.19527293190771 8.76948962422883  C 4.19527293190771 8.70667414469994  4.22059651097355 8.65507571508693  4.27124366910523 8.61469433538979  C 4.32189082723692 8.57431295569265  4.38660664040518 8.55412226584408  4.46539110861002 8.55412226584408  L 14.7298818232977 8.55412226584408  C 14.8030388294879 8.55412226584408  14.8663477771525 8.57543466068424  14.9198086662915 8.61805945036455  Z M 2.20315137872819 2.7190128996074  L 3.11480022509848 2.7190128996074  L 3.11480022509848 3.38530566461021  L 0.287000562746202 3.38530566461021  L 0.287000562746202 2.7190128996074  L 1.19020821609454 2.7190128996074  C 1.19020821609454 2.5350532809871  1.1916150815982 2.26247896803141  1.19442881260551 1.90128996074032  C 1.19724254361283 1.54010095344924  1.19864940911649 1.26752664049355  1.19864940911649 1.08356702187325  L 1.19864940911649 1.00280426247897  L 1.18176702307259 1.00280426247897  C 1.13674732695554 1.0790802019069  0.996060776589758 1.20022434099832  0.759707371975239 1.36623667975323  L 0.160382667416995 0.854739203589456  L 1.3083849184018 0  L 2.20315137872819 0  L 2.20315137872819 2.7190128996074  Z M 14.9198086662915 5.17218171620864  C 14.9732695554305 5.21480650588895  15 5.26528323051038  15 5.32361189007291  L 15 6.61581604038138  C 15 6.67414469994392  14.9732695554305 6.72462142456534  14.9198086662915 6.76724621424565  C 14.8663477771525 6.80987100392597  14.8030388294879 6.83118339876613  14.7298818232977 6.83118339876613  L 4.46539110861002 6.83118339876613  C 4.39223410241981 6.83118339876613  4.32892515475521 6.80987100392597  4.27546426561621 6.76724621424565  C 4.22200337647721 6.72462142456534  4.19527293190771 6.67414469994392  4.19527293190771 6.61581604038138  L 4.19527293190771 5.32361189007291  C 4.19527293190771 5.26079641054403  4.22059651097355 5.20919798093102  4.27124366910523 5.16881660123387  C 4.32189082723692 5.12843522153674  4.38660664040518 5.10824453168817  4.46539110861002 5.10824453168817  L 14.7298818232977 5.10824453168817  C 14.8030388294879 5.10824453168817  14.8663477771525 5.12955692652832  14.9198086662915 5.17218171620864  Z M 14.9198086662915 1.72630398205272  C 14.9732695554305 1.76892877173303  15 1.81940549635446  15 1.87773415591699  L 15 3.16993830622546  C 15 3.228266965788  14.9732695554305 3.27874369040942  14.9198086662915 3.32136848008974  C 14.8663477771525 3.36399326977005  14.8030388294879 3.38530566461021  14.7298818232977 3.38530566461021  L 4.46539110861002 3.38530566461021  C 4.39223410241981 3.38530566461021  4.32892515475521 3.36399326977005  4.27546426561621 3.32136848008974  C 4.22200337647721 3.27874369040942  4.19527293190771 3.228266965788  4.19527293190771 3.16993830622546  L 4.19527293190771 1.87773415591699  C 4.19527293190771 1.81940549635446  4.22200337647721 1.76892877173303  4.27546426561621 1.72630398205272  C 4.32892515475521 1.6836791923724  4.39223410241981 1.66236679753225  4.46539110861002 1.66236679753225  L 14.7298818232977 1.66236679753225  C 14.8030388294879 1.66236679753225  14.8663477771525 1.6836791923724  14.9198086662915 1.72630398205272  Z " fill-rule="nonzero" fill="#000000" stroke="none" transform="matrix(1 0 0 1 779 889 )" />
  </g>
</svg>