<?xml version="1.0" encoding="utf-8"?>
<svg version="1.1" xmlns:xlink="http://www.w3.org/1999/xlink" width="15px" height="12px" xmlns="http://www.w3.org/2000/svg">
  <g transform="matrix(1 0 0 1 -464 -889 )">
    <path d="M 3.75 8  L 3.75 11  L 11.25 11  L 11.25 8  L 3.75 8  Z M 12.5 7.75  L 12.5 11  L 13.75 11  L 13.75 4  C 13.75 3.92708333333333  13.7174479166667 3.82682291666667  13.65234375 3.69921875  C 13.5872395833333 3.57161458333333  13.5221354166667 3.48177083333333  13.45703125 3.4296875  L 10.712890625 1.234375  C 10.6477864583333 1.18229166666667  10.537109375 1.13020833333333  10.380859375 1.078125  C 10.224609375 1.02604166666667  10.09765625 1  10 1  L 10 4.25  C 10 4.45833333333333  9.90885416666667 4.63541666666667  9.7265625 4.78125  C 9.54427083333333 4.92708333333333  9.32291666666667 5  9.0625 5  L 3.4375 5  C 3.17708333333333 5  2.95572916666667 4.92708333333333  2.7734375 4.78125  C 2.59114583333333 4.63541666666667  2.5 4.45833333333333  2.5 4.25  L 2.5 1  L 1.25 1  L 1.25 11  L 2.5 11  L 2.5 7.75  C 2.5 7.54166666666667  2.59114583333333 7.36458333333333  2.7734375 7.21875  C 2.95572916666667 7.07291666666667  3.17708333333333 7  3.4375 7  L 11.5625 7  C 11.8229166666667 7  12.0442708333333 7.07291666666667  12.2265625 7.21875  C 12.4088541666667 7.36458333333333  12.5 7.54166666666667  12.5 7.75  Z M 8.6572265625 3.92578125  C 8.71907552083333 3.87630208333333  8.75 3.81770833333333  8.75 3.75  L 8.75 1.25  C 8.75 1.18229166666667  8.71907552083333 1.12369791666667  8.6572265625 1.07421875  C 8.59537760416667 1.02473958333333  8.52213541666667 1  8.4375 1  L 6.5625 1  C 6.47786458333333 1  6.40462239583333 1.02473958333333  6.3427734375 1.07421875  C 6.28092447916667 1.12369791666667  6.25 1.18229166666667  6.25 1.25  L 6.25 3.75  C 6.25 3.81770833333333  6.28092447916667 3.87630208333333  6.3427734375 3.92578125  C 6.40462239583333 3.97526041666667  6.47786458333333 4  6.5625 4  L 8.4375 4  C 8.52213541666667 4  8.59537760416667 3.97526041666667  8.6572265625 3.92578125  Z M 14.8046875 3.3125  C 14.9348958333333 3.5625  15 3.79166666666667  15 4  L 15 11.25  C 15 11.4583333333333  14.9088541666667 11.6354166666667  14.7265625 11.78125  C 14.5442708333333 11.9270833333333  14.3229166666667 12  14.0625 12  L 0.9375 12  C 0.677083333333333 12  0.455729166666667 11.9270833333333  0.2734375 11.78125  C 0.0911458333333333 11.6354166666667  0 11.4583333333333  0 11.25  L 0 0.75  C 0 0.541666666666666  0.0911458333333333 0.364583333333332  0.2734375 0.21875  C 0.455729166666667 0.0729166666666661  0.677083333333333 0  0.9375 0  L 10 0  C 10.2604166666667 0  10.546875 0.0520833333333321  10.859375 0.15625  C 11.171875 0.260416666666666  11.4192708333333 0.385416666666666  11.6015625 0.53125  L 14.3359375 2.71875  C 14.5182291666667 2.86458333333333  14.6744791666667 3.0625  14.8046875 3.3125  Z " fill-rule="nonzero" fill="#000000" stroke="none" transform="matrix(1 0 0 1 464 889 )" />
  </g>
</svg>