<?xml version="1.0" encoding="utf-8"?>
<svg version="1.1" xmlns:xlink="http://www.w3.org/1999/xlink" width="15px" height="12px" xmlns="http://www.w3.org/2000/svg">
  <g transform="matrix(1 0 0 1 -544 -909 )">
    <path d="M 1.7724609375 11.8984375  C 0.8740234375 11.9453125  0.283203125 11.9739583333333  0 11.984375  L 0.2490234375 11.3203125  C 0.4638671875 11.2838541666667  0.76416015625 11.2408854166667  1.14990234375 11.19140625  C 1.53564453125 11.1419270833333  1.88720703125 11.0924479166667  2.20458984375 11.04296875  C 2.52197265625 10.9934895833333  2.8125 10.9322916666667  3.076171875 10.859375  C 3.349609375 10.6770833333333  3.5498046875 10.4140625  3.6767578125 10.0703125  C 3.6865234375 10.0338541666667  3.9892578125 9.28125  4.5849609375 7.8125  C 5.1806640625 6.34375  5.7373046875 4.92838541666667  6.2548828125 3.56640625  C 6.7724609375 2.20442708333333  7.0263671875 1.43229166666667  7.0166015625 1.25  L 7.0166015625 1.0546875  C 6.7822265625 0.986979166666666  6.51611328125 0.938802083333332  6.21826171875 0.91015625  C 5.92041015625 0.881510416666666  5.5810546875 0.860677083333332  5.2001953125 0.84765625  C 4.8193359375 0.834635416666666  4.5361328125 0.8203125  4.3505859375 0.8046875  L 4.62890625 0  C 4.951171875 0.0104166666666656  5.537109375 0.0273437500000004  6.38671875 0.0507812500000004  C 7.236328125 0.0742187500000004  7.96630859375 0.0924479166666656  8.57666015625 0.10546875  C 9.18701171875 0.118489583333332  9.775390625 0.125  10.341796875 0.125  C 10.810546875 0.125  11.29150390625 0.118489583333332  11.78466796875 0.10546875  C 12.27783203125 0.0924479166666656  12.86865234375 0.0742187500000004  13.55712890625 0.0507812500000004  C 14.24560546875 0.0273437500000004  14.7265625 0.0104166666666656  15 0  C 14.951171875 0.203125  14.8583984375 0.434895833333332  14.7216796875 0.6953125  C 14.4287109375 0.747395833333333  13.93310546875 0.821614583333332  13.23486328125 0.91796875  C 12.53662109375 1.01432291666667  12.0068359375 1.1015625  11.6455078125 1.1796875  C 11.5673828125 1.27864583333333  11.4990234375 1.38932291666667  11.4404296875 1.51171875  C 11.3818359375 1.63411458333333  11.337890625 1.73828125  11.30859375 1.82421875  C 11.279296875 1.91015625  11.24267578125 2.02864583333333  11.19873046875 2.1796875  C 11.15478515625 2.33072916666667  11.123046875 2.44010416666667  11.103515625 2.5078125  C 10.83984375 3.27864583333333  10.41259765625 4.37109375  9.82177734375 5.78515625  C 9.23095703125 7.19921875  8.8525390625 8.125  8.6865234375 8.5625  C 8.6669921875 8.609375  8.603515625 8.76041666666666  8.49609375 9.015625  C 8.388671875 9.27083333333333  8.291015625 9.50520833333333  8.203125 9.71875  C 8.115234375 9.93229166666667  8.037109375 10.1497395833333  7.96875 10.37109375  C 7.900390625 10.5924479166667  7.87109375 10.7421875  7.880859375 10.8203125  L 7.8955078125 10.9609375  C 8.0615234375 10.9817708333333  8.96484375 11.0625  10.60546875 11.203125  C 10.576171875 11.4322916666667  10.498046875 11.6901041666667  10.37109375 11.9765625  C 10.263671875 11.9765625  10.10498046875 11.98046875  9.89501953125 11.98828125  C 9.68505859375 11.99609375  9.5263671875 12  9.4189453125 12  C 9.1357421875 12  8.7109375 11.9739583333333  8.14453125 11.921875  C 7.578125 11.8697916666667  7.158203125 11.84375  6.884765625 11.84375  C 5.537109375 11.8333333333333  4.53125 11.828125  3.8671875 11.828125  C 3.369140625 11.828125  2.6708984375 11.8515625  1.7724609375 11.8984375  Z " fill-rule="nonzero" fill="#000000" stroke="none" transform="matrix(1 0 0 1 544 909 )" />
  </g>
</svg>