<?xml version="1.0" encoding="utf-8"?>
<svg version="1.1" xmlns:xlink="http://www.w3.org/1999/xlink" width="15px" height="12px" xmlns="http://www.w3.org/2000/svg">
  <g transform="matrix(1 0 0 1 -679 -909 )">
    <path d="M 8.19411057692308 6.8984375  C 7.67127403846154 5.58072916666667  7.11838942307692 4.40364583333333  6.53545673076923 3.3671875  L 5.00300480769231 6.8828125  C 5.20132211538462 6.8828125  5.61147836538462 6.88802083333333  6.23347355769231 6.8984375  C 6.85546875 6.90885416666667  7.33774038461539 6.9140625  7.68028846153846 6.9140625  C 7.79447115384616 6.9140625  7.96574519230769 6.90885416666667  8.19411057692308 6.8984375  Z M 1.69471153846154 11.890625  C 1.21394230769231 11.9635416666667  0.649038461538462 12  0 12  L 0.0180288461538462 11.3828125  C 0.15625 11.3463541666667  0.324519230769231 11.3138020833333  0.522836538461538 11.28515625  C 0.721153846153846 11.2565104166667  0.892427884615385 11.2291666666667  1.03665865384615 11.203125  C 1.18088942307692 11.1770833333333  1.32962740384615 11.1393229166667  1.48287259615385 11.08984375  C 1.63611778846154 11.0403645833333  1.76983173076923 10.96484375  1.88401442307692 10.86328125  C 1.99819711538462 10.76171875  2.09134615384615 10.6302083333333  2.16346153846154 10.46875  L 4.29987980769231 5.65625  L 6.82391826923077 0  L 7.5 0  L 7.97776442307692 0  C 8.02584134615385 0.0729166666666661  8.05889423076923 0.127604166666666  8.07692307692308 0.1640625  L 9.92487980769231 3.9140625  C 10.1231971153846 4.3203125  10.4417067307692 4.99088541666667  10.8804086538462 5.92578125  C 11.3191105769231 6.86067708333333  11.6616586538462 7.57552083333333  11.9080528846154 8.0703125  C 11.9981971153846 8.24739583333333  12.1724759615385 8.62369791666667  12.4308894230769 9.19921875  C 12.6893028846154 9.77473958333333  12.9056490384615 10.2135416666667  13.0799278846154 10.515625  C 13.2001201923077 10.75  13.3052884615385 10.8984375  13.3954326923077 10.9609375  C 13.5096153846154 11.0390625  13.7740384615385 11.1158854166667  14.1887019230769 11.19140625  C 14.6033653846154 11.2669270833333  14.8557692307692 11.3203125  14.9459134615385 11.3515625  C 14.9819711538462 11.5494791666667  15 11.6979166666667  15 11.796875  C 15 11.8229166666667  14.9984975961538 11.8580729166667  14.9954927884615 11.90234375  C 14.9924879807692 11.9466145833333  14.9909855769231 11.9791666666667  14.9909855769231 12  C 14.6123798076923 12  14.0414663461538 11.9791666666667  13.2782451923077 11.9375  C 12.5150240384615 11.8958333333333  11.9411057692308 11.875  11.5564903846154 11.875  C 11.0997596153846 11.875  10.4537259615385 11.8932291666667  9.61838942307692 11.9296875  C 8.78305288461539 11.9661458333333  8.24819711538462 11.9869791666667  8.01382211538462 11.9921875  C 8.01382211538462 11.7682291666667  8.02584134615385 11.5651041666667  8.04987980769231 11.3828125  L 9.23076923076923 11.1640625  C 9.23677884615385 11.1640625  9.27433894230769 11.1575520833333  9.34344951923077 11.14453125  C 9.41256009615385 11.1315104166667  9.45913461538462 11.1223958333333  9.48317307692308 11.1171875  C 9.50721153846154 11.1119791666667  9.55078125 11.1002604166667  9.61388221153846 11.08203125  C 9.67698317307692 11.0638020833333  9.72205528846154 11.046875  9.74909855769231 11.03125  C 9.77614182692308 11.015625  9.80919471153846 10.9947916666667  9.84825721153846 10.96875  C 9.88731971153846 10.9427083333333  9.91436298076923 10.9140625  9.92938701923077 10.8828125  C 9.94441105769231 10.8515625  9.95192307692308 10.8151041666667  9.95192307692308 10.7734375  C 9.95192307692308 10.6901041666667  9.85877403846154 10.4388020833333  9.67247596153846 10.01953125  C 9.48617788461539 9.60026041666667  9.26983173076923 9.13802083333333  9.0234375 8.6328125  C 8.77704326923077 8.12760416666666  8.65084134615385 7.8671875  8.64483173076923 7.8515625  L 4.58834134615385 7.8359375  C 4.43209134615385 8.13802083333333  4.20222355769231 8.64713541666667  3.89873798076923 9.36328125  C 3.59525240384615 10.0794270833333  3.44350961538462 10.5026041666667  3.44350961538462 10.6328125  C 3.44350961538462 10.7473958333333  3.48557692307692 10.8450520833333  3.56971153846154 10.92578125  C 3.65384615384615 11.0065104166667  3.78455528846154 11.0703125  3.96183894230769 11.1171875  C 4.13912259615385 11.1640625  4.28485576923077 11.19921875  4.39903846153846 11.22265625  C 4.51322115384615 11.24609375  4.68449519230769 11.2682291666667  4.91286057692308 11.2890625  C 5.14122596153846 11.3098958333333  5.26442307692308 11.3203125  5.28245192307692 11.3203125  C 5.28846153846154 11.4192708333333  5.29146634615385 11.5703125  5.29146634615385 11.7734375  C 5.29146634615385 11.8203125  5.28545673076923 11.890625  5.2734375 11.984375  C 4.92487980769231 11.984375  4.40054086538462 11.9583333333333  3.70042067307692 11.90625  C 3.00030048076923 11.8541666666667  2.47596153846154 11.828125  2.12740384615385 11.828125  C 2.07932692307692 11.828125  1.99969951923077 11.8385416666667  1.88852163461538 11.859375  C 1.77734375 11.8802083333333  1.71274038461538 11.890625  1.69471153846154 11.890625  Z " fill-rule="nonzero" fill="#000000" stroke="none" transform="matrix(1 0 0 1 679 909 )" />
  </g>
</svg>