<?xml version="1.0" encoding="utf-8"?>
<svg version="1.1" xmlns:xlink="http://www.w3.org/1999/xlink" width="15px" height="12px" xmlns="http://www.w3.org/2000/svg">
  <g transform="matrix(1 0 0 1 -571 -909 )">
    <path d="M 1.904296875 1.046875  C 1.74153645833333 0.859375  1.26302083333333 0.7578125  0.46875 0.7421875  C 0.227864583333333 0.731770833333332  0.0813802083333333 0.721354166666667  0.029296875 0.7109375  L 0 0.0234375  C 0.0846354166666667 0.0182291666666665  0.21484375 0.0156250000000004  0.390625 0.0156250000000004  C 0.78125 0.0156250000000004  1.14583333333333 0.0260416666666661  1.484375 0.046875  C 2.34375 0.0833333333333317  2.88411458333333 0.1015625  3.10546875 0.1015625  C 3.66536458333333 0.1015625  4.21223958333333 0.09375  4.74609375 0.0781249999999996  C 5.50130208333333 0.0572916666666656  5.9765625 0.0442708333333326  6.171875 0.0390625000000004  C 6.53645833333333 0.0390625000000004  6.81640625 0.0338541666666656  7.01171875 0.0234375  L 7.001953125 0.1328125  L 7.021484375 0.6328125  L 7.021484375 0.703125  C 6.630859375 0.75  6.22721354166667 0.7734375  5.810546875 0.7734375  C 5.419921875 0.7734375  5.16276041666667 0.838541666666667  5.0390625 0.96875  C 4.95442708333333 1.04166666666667  4.912109375 1.38541666666667  4.912109375 2  C 4.912109375 2.06770833333333  4.91373697916667 2.15234375  4.9169921875 2.25390625  C 4.92024739583333 2.35546875  4.921875 2.421875  4.921875 2.453125  L 4.931640625 4.2421875  L 5.068359375 6.4296875  C 5.107421875 7.07552083333333  5.2734375 7.6015625  5.56640625 8.0078125  C 5.79427083333333 8.31510416666666  6.10677083333333 8.5546875  6.50390625 8.7265625  C 7.07682291666667 8.97135416666666  7.65299479166667 9.09375  8.232421875 9.09375  C 8.90950520833333 9.09375  9.53125 9.02083333333333  10.09765625 8.875  C 10.4622395833333 8.78125  10.7845052083333 8.6484375  11.064453125 8.4765625  C 11.376953125 8.2890625  11.5885416666667 8.12239583333333  11.69921875 7.9765625  C 11.93359375 7.68489583333333  12.1061197916667 7.38802083333333  12.216796875 7.0859375  C 12.353515625 6.70572916666667  12.421875 6.109375  12.421875 5.296875  C 12.421875 4.88541666666667  12.4104817708333 4.55208333333333  12.3876953125 4.296875  C 12.3649088541667 4.04166666666667  12.3291015625 3.72265625  12.2802734375 3.33984375  C 12.2314453125 2.95703125  12.1875 2.54166666666667  12.1484375 2.09375  L 12.109375 1.6328125  C 12.0768229166667 1.28385416666667  11.9986979166667 1.0546875  11.875 0.9453125  C 11.6536458333333 0.763020833333332  11.4029947916667 0.674479166666667  11.123046875 0.6796875  L 10.146484375 0.6953125  L 10.009765625 0.671875  L 10.029296875 0  L 10.849609375 0  L 12.8515625 0.0781249999999996  C 13.3463541666667 0.09375  13.984375 0.0677083333333326  14.765625 0  L 14.94140625 0.0156250000000004  C 14.98046875 0.213541666666666  15 0.346354166666667  15 0.4140625  C 15 0.450520833333332  14.9869791666667 0.53125  14.9609375 0.65625  C 14.66796875 0.71875  14.39453125 0.752604166666666  14.140625 0.7578125  C 13.6653645833333 0.815104166666667  13.408203125 0.859375  13.369140625 0.890625  C 13.271484375 0.96875  13.22265625 1.07552083333333  13.22265625 1.2109375  C 13.22265625 1.24739583333333  13.2275390625 1.31770833333333  13.2373046875 1.421875  C 13.2470703125 1.52604166666667  13.251953125 1.60677083333333  13.251953125 1.6640625  C 13.3040364583333 1.76302083333333  13.3756510416667 2.79427083333333  13.466796875 4.7578125  C 13.505859375 5.7734375  13.45703125 6.56510416666667  13.3203125 7.1328125  C 13.22265625 7.52864583333333  13.0891927083333 7.84635416666667  12.919921875 8.0859375  C 12.6725260416667 8.42447916666667  12.3079427083333 8.74479166666667  11.826171875 9.046875  C 11.337890625 9.34375  10.7454427083333 9.57552083333333  10.048828125 9.7421875  C 9.33919270833333 9.9140625  8.50911458333333 10  7.55859375 10  C 6.47135416666667 10  5.546875 9.88020833333333  4.78515625 9.640625  C 4.01041666666667 9.39583333333333  3.427734375 9.078125  3.037109375 8.6875  C 2.63997395833333 8.29166666666666  2.36979166666667 7.78385416666667  2.2265625 7.1640625  C 2.12239583333333 6.74739583333333  2.0703125 6.13020833333333  2.0703125 5.3125  L 2.0703125 2.7109375  C 2.0703125 1.73177083333333  2.01497395833333 1.17708333333333  1.904296875 1.046875  Z M 14.912109375 11.9296875  C 14.970703125 11.8828125  15 11.8229166666667  15 11.75  L 15 11.25  C 15 11.1770833333333  14.970703125 11.1171875  14.912109375 11.0703125  C 14.853515625 11.0234375  14.7786458333333 11  14.6875 11  L 0.3125 11  C 0.221354166666667 11  0.146484375 11.0234375  0.087890625 11.0703125  C 0.029296875 11.1171875  0 11.1770833333333  0 11.25  L 0 11.75  C 0 11.8229166666667  0.029296875 11.8828125  0.087890625 11.9296875  C 0.146484375 11.9765625  0.221354166666667 12  0.3125 12  L 14.6875 12  C 14.7786458333333 12  14.853515625 11.9765625  14.912109375 11.9296875  Z " fill-rule="nonzero" fill="#000000" stroke="none" transform="matrix(1 0 0 1 571 909 )" />
  </g>
</svg>