<?xml version="1.0" encoding="utf-8"?>
<svg version="1.1" xmlns:xlink="http://www.w3.org/1999/xlink" width="15px" height="12px" xmlns="http://www.w3.org/2000/svg">
  <g transform="matrix(1 0 0 1 -835 -909 )">
    <path d="M 0 0.0144491270319089  L 0.791015625 0.0072245635159538  L 1.318359375 0.202287778446718  C 1.396484375 0.226369656833232  2.08333333333333 0.23841059602649  3.37890625 0.23841059602649  C 3.66536458333333 0.23841059602649  4.09505208333333 0.233594220349187  4.66796875 0.223961468994581  C 5.24088541666667 0.214328717639975  5.67057291666667 0.209512341962673  5.95703125 0.209512341962673  C 6.41276041666667 0.209512341962673  7.21516927083333 0.20710415412402  8.3642578125 0.202287778446718  C 9.51334635416667 0.197471402769415  10.5045572916667 0.196267308850089  11.337890625 0.198675496688741  C 12.1712239583333 0.201083684527392  12.9752604166667 0.211920529801324  13.75 0.231186032510536  C 13.96484375 0.236002408187838  14.1471354166667 0.161348585189644  14.296875 0.0072245635159538  L 14.70703125 0  C 14.7330729166667 0  14.7786458333333 0.00120409391932474  14.84375 0.0036122817579769  C 14.9088541666667 0.00602046959662772  14.9544270833333 0.0072245635159538  14.98046875 0.0072245635159538  C 14.9934895833333 0.54665863937387  15 1.35580975316075  15 2.43467790487658  C 15 2.81998795906081  14.9837239583333 3.08248043347381  14.951171875 3.22215532811559  C 14.697265625 3.28958458759783  14.4759114583333 3.33293196869356  14.287109375 3.35219747140277  C 14.1243489583333 3.14027694160144  13.9485677083333 2.83202889825406  13.759765625 2.42745334136063  C 13.740234375 2.3841059602649  13.7044270833333 2.26971703792896  13.65234375 2.0842865743528  C 13.6002604166667 1.89885611077664  13.5514322916667 1.72185430463576  13.505859375 1.55328115593016  C 13.4602864583333 1.38470800722456  13.4375 1.29801324503311  13.4375 1.29319686935581  C 13.3723958333333 1.23058398555087  13.2845052083333 1.1848284166165  13.173828125 1.15593016255268  C 13.1412760416667 1.14629741119807  12.9264322916667 1.14148103552077  12.529296875 1.14148103552077  C 12.333984375 1.14148103552077  12.03125 1.13907284768212  11.62109375 1.13425647200482  C 11.2109375 1.12944009632751  10.8756510416667 1.12703190848886  10.615234375 1.12703190848886  C 10.3548177083333 1.12703190848886  10.048828125 1.13184828416616  9.697265625 1.14148103552077  C 9.345703125 1.15111378687538  9.033203125 1.16797110174593  8.759765625 1.19205298013245  C 8.701171875 1.58217940999398  8.67513020833333 1.90969295605057  8.681640625 2.17459361830223  L 8.69140625 3.27272727272727  L 8.69140625 2.89704996989765  C 8.69140625 3.16195063214931  8.69466145833333 3.53281155930163  8.701171875 4.00963275135461  C 8.70768229166667 4.48645394340759  8.71256510416667 4.91992775436484  8.7158203125 5.31005418422637  C 8.71907552083333 5.7001806140879  8.720703125 6.06863335340157  8.720703125 6.41541240216737  C 8.720703125 6.49247441300421  8.71256510416667 6.66465984346779  8.6962890625 6.9319686935581  C 8.68001302083334 7.1992775436484  8.68001302083334 7.41962673088501  8.6962890625 7.59301625526791  C 8.71256510416667 7.76640577965081  8.75325520833333 7.93257074051776  8.818359375 8.09151113786875  C 9.07877604166667 8.19265502709211  9.482421875 8.2950030102348  10.029296875 8.39855508729681  C 10.576171875 8.50210716435882  10.966796875 8.59241420830825  11.201171875 8.66947621914509  C 11.2337239583333 8.86213124623721  11.25 8.98254063816978  11.25 9.03070439494281  C 11.25 9.09813365442504  11.240234375 9.16797110174594  11.220703125 9.24021673690548  L 10.888671875 9.24744130042143  C 10.3938802083333 9.25707405177604  9.68424479166667 9.23780854906683  8.759765625 9.1896447922938  C 7.83528645833333 9.14148103552077  7.16145833333333 9.11739915713426  6.73828125 9.11739915713426  C 6.41276041666667 9.11739915713426  5.92122395833333 9.13907284768212  5.263671875 9.18242022877785  C 4.60611979166667 9.22576760987357  4.111328125 9.24744130042143  3.779296875 9.24744130042143  C 3.759765625 9.00180614087899  3.75 8.87658037326912  3.75 8.87176399759181  L 3.75 8.80674292594822  C 3.86067708333333 8.67670078266105  4.06087239583333 8.57314870559904  4.3505859375 8.49608669476219  C 4.64029947916667 8.41902468392535  4.9609375 8.34918723660446  5.3125 8.28657435279952  C 5.6640625 8.22396146899458  5.91796875 8.15894039735099  6.07421875 8.09151113786875  C 6.11979166666667 8.01444912703191  6.1572265625 7.8362432269717  6.1865234375 7.55689343768814  C 6.2158203125 7.27754364840458  6.2353515625 6.92715231788079  6.2451171875 6.5057194461168  C 6.2548828125 6.0842865743528  6.259765625 5.71101745936183  6.259765625 5.38591210114389  C 6.259765625 5.06080674292595  6.25813802083333 4.69114990969296  6.2548828125 4.27694160144491  C 6.25162760416667 3.86273329319687  6.25 3.64840457555689  6.25 3.63395544852499  C 6.25 3.60024081878386  6.24186197916667 3.54846478025286  6.2255859375 3.47862733293197  C 6.20930989583333 3.40878988561108  6.201171875 3.35460565924142  6.201171875 3.316074653823  C 6.201171875 3.28236002408188  6.20279947916667 3.17639975918122  6.2060546875 2.99819385912101  C 6.20930989583333 2.81998795906081  6.21256510416667 2.64419024683925  6.2158203125 2.47080072245635  C 6.21907552083333 2.29741119807345  6.21907552083333 2.11318482841662  6.2158203125 1.91812161348585  C 6.21256510416667 1.72305839855509  6.20279947916667 1.56050571944612  6.1865234375 1.43046357615894  C 6.17024739583333 1.30042143287176  6.14908854166667 1.22335942203492  6.123046875 1.1992775436484  C 6.05143229166667 1.14148103552077  5.52408854166667 1.11258278145695  4.541015625 1.11258278145695  C 4.27408854166667 1.11258278145695  3.74348958333333 1.14509331727875  2.94921875 1.21011438892234  C 2.15494791666667 1.27513546056592  1.70572916666667 1.33413606261288  1.6015625 1.38711619506322  C 1.47786458333333 1.44491270319085  1.3671875 1.61709813365442  1.26953125 1.90367248645394  C 1.171875 2.19024683925346  1.0693359375 2.45875978326309  0.9619140625 2.70921131848284  C 0.8544921875 2.95966285370259  0.716145833333333 3.08970499698976  0.546875 3.09933774834437  C 0.2734375 2.9741119807345  0.0911458333333333 2.86815171583383  0 2.78145695364238  L 0 0.0144491270319089  Z M 12.5927734375 9.34497290788682  C 12.6416015625 9.29440096327514  12.7083333333333 9.2691149909693  12.79296875 9.2691149909693  C 12.87109375 9.2691149909693  13.0078125 9.316074653823  13.203125 9.4099939795304  C 13.3984375 9.50391330523781  13.5856119791667 9.60385310054184  13.7646484375 9.70981336544251  C 13.9436848958333 9.81577363034317  14.1373697916667 9.93377483443709  14.345703125 10.0638169777243  C 14.5540364583333 10.1938591210114  14.6712239583333 10.266104756171  14.697265625 10.2805538832029  C 14.8665364583333 10.3816977724263  14.951171875 10.4996989765202  14.951171875 10.6345574954846  C 14.951171875 10.7694160144491  14.8665364583333 10.887417218543  14.697265625 10.9885611077664  C 14.6712239583333 11.0030102347983  14.5540364583333 11.0752558699579  14.345703125 11.205298013245  C 14.1373697916667 11.3353401565322  13.9436848958333 11.4533413606261  13.7646484375 11.5593016255268  C 13.5856119791667 11.6652618904275  13.3984375 11.7652016857315  13.203125 11.8591210114389  C 13.0078125 11.9530403371463  12.87109375 12  12.79296875 12  C 12.7083333333333 12  12.6416015625 11.9747140276942  12.5927734375 11.9241420830825  C 12.5439453125 11.8735701384708  12.5113932291667 11.8049367850692  12.4951171875 11.7182420228778  C 12.4788411458333 11.6315472606863  12.470703125 11.5508729680915  12.470703125 11.4762191450933  C 12.470703125 11.4015653220951  12.4755859375 11.3220951234196  12.4853515625 11.2378085490668  C 12.4951171875 11.153521974714  12.5 11.1065623118603  12.5 11  L 2.5 11  C 2.5 11.1065623118603  2.5048828125 11.153521974714  2.5146484375 11.2378085490668  C 2.5244140625 11.3220951234196  2.529296875 11.4015653220951  2.529296875 11.4762191450933  C 2.529296875 11.5508729680915  2.52115885416667 11.6315472606863  2.5048828125 11.7182420228778  C 2.48860677083333 11.8049367850692  2.4560546875 11.8735701384708  2.4072265625 11.9241420830825  C 2.3583984375 11.9747140276942  2.29166666666667 12  2.20703125 12  C 2.12890625 12  1.9921875 11.9530403371463  1.796875 11.8591210114389  C 1.6015625 11.7652016857315  1.41438802083333 11.6652618904275  1.2353515625 11.5593016255268  C 1.05631510416667 11.4533413606261  0.862630208333333 11.3353401565322  0.654296875 11.205298013245  C 0.445963541666667 11.0752558699579  0.328776041666667 11.0030102347983  0.302734375 10.9885611077664  C 0.133463541666667 10.887417218543  0.048828125 10.7694160144491  0.048828125 10.6345574954846  C 0.048828125 10.4996989765202  0.133463541666667 10.3816977724263  0.302734375 10.2805538832029  C 0.328776041666667 10.266104756171  0.445963541666667 10.1938591210114  0.654296875 10.0638169777243  C 0.862630208333333 9.93377483443709  1.05631510416667 9.81577363034317  1.2353515625 9.70981336544251  C 1.41438802083333 9.60385310054184  1.6015625 9.50391330523781  1.796875 9.4099939795304  C 1.9921875 9.316074653823  2.12890625 9.2691149909693  2.20703125 9.2691149909693  C 2.29166666666667 9.2691149909693  2.3583984375 9.29440096327514  2.4072265625 9.34497290788682  C 2.4560546875 9.3955448524985  2.48860677083333 9.46417820590006  2.5048828125 9.55087296809151  C 2.52115885416667 9.63756773028296  2.529296875 9.71824202287779  2.529296875 9.79289584587598  C 2.529296875 9.86754966887417  2.5244140625 9.94701986754967  2.5146484375 10.0313064419025  C 2.5048828125 10.1155930162553  2.5 10.162552679109  2.5 10  L 12.5 10  C 12.5 10.162552679109  12.4951171875 10.1155930162553  12.4853515625 10.0313064419025  C 12.4755859375 9.94701986754967  12.470703125 9.86754966887417  12.470703125 9.79289584587598  C 12.470703125 9.71824202287779  12.4788411458333 9.63756773028296  12.4951171875 9.55087296809151  C 12.5113932291667 9.46417820590006  12.5439453125 9.3955448524985  12.5927734375 9.34497290788682  Z " fill-rule="nonzero" fill="#000000" stroke="none" transform="matrix(1 0 0 1 835 909 )" />
  </g>
</svg>