<?xml version="1.0" encoding="utf-8"?>
<svg version="1.1" xmlns:xlink="http://www.w3.org/1999/xlink" width="15px" height="12px" xmlns="http://www.w3.org/2000/svg">
  <g transform="matrix(1 0 0 1 -653 -909 )">
    <path d="M 7.6814911706998 10.5551550108147  L 8.75081752779595 10.5551550108147  L 8.75081752779595 12  L 6.31785480706344 12  L 4.75801177240026 9.8197548666186  L 4.52256376716808 9.4563806777217  C 4.4702419882276 9.40447007930786  4.43427076520602 9.34390771449171  4.41465009810334 9.27469358327325  L 4.38521909744931 9.27469358327325  C 4.37867887508175 9.29199711607787  4.3705035971223 9.31074260994953  4.36069326357096 9.33093006488825  C 4.35088293001962 9.35111751982696  4.33943754087639 9.37418889689978  4.32635709614127 9.40014419610671  C 4.31327665140615 9.42609949531363  4.30346631785481 9.44484498918529  4.29692609548725 9.4563806777217  C 4.23152387181164 9.5717375630858  4.14977109221714 9.6986301369863  4.05166775670373 9.83705839942322  L 2.53106605624591 12  L 0 12  L 0 10.5551550108147  L 1.25572269457162 10.5551550108147  L 3.18835840418574 8.03749098774333  L 1.3734466971877 5.68421052631579  L 0.0294310006540222 5.68421052631579  L 0.0294310006540222 4.23071377072819  L 2.73708306082407 4.23071377072819  L 4.10071942446043 6.20331651045422  C 4.11379986919555 6.22638788752704  4.1890124264225 6.34751261715934  4.32635709614127 6.56669069935112  C 4.37867887508175 6.61860129776496  4.41465009810334 6.67916366258111  4.43427076520602 6.74837779379957  L 4.46370176586004 6.74837779379957  C 4.48332243296272 6.69646719538573  4.5192936559843 6.63590483056957  4.57161543492479 6.56669069935112  L 4.81687377370831 6.20331651045422  L 6.19032047089601 4.23071377072819  L 8.71157619359058 4.23071377072819  L 8.71157619359058 5.68421052631579  L 7.48528449967299 5.68421052631579  L 5.68018312622629 7.99423215573179  L 7.6814911706998 10.5551550108147  Z M 13.7638979725311 4.68060562364816  L 15 4.68060562364816  L 15 6.46286950252343  L 9.95748855461086 6.46286950252343  L 9.92805755395684 6.22927180966114  C 9.90189666448659 6.06777217015141  9.88881621975147 5.9351117519827  9.88881621975147 5.83129055515501  C 9.88881621975147 5.46214852198991  9.97383911052976 5.12472963229993  10.1438848920863 4.81903388608508  C 10.3139306736429 4.51333813987022  10.5264879005886 4.26387887527037  10.7815565729235 4.07065609228551  C 11.0366252452583 3.87743330930065  11.3113145846959 3.68997837058399  11.6056245912361 3.50829127613554  C 11.8999345977763 3.32660418168709  12.1746239372139 3.16943042537851  12.4296926095487 3.03677000720981  C 12.6847612818836 2.9041095890411  12.8973185088293 2.74837779379957  13.0673642903859 2.56957462148522  C 13.2374100719424 2.39077144917087  13.3224329627207 2.20620043258832  13.3224329627207 2.01586157173756  C 13.3224329627207 1.79668348954578  13.2259646827992 1.61643835616438  13.0330281229562 1.47512617159337  C 12.8400915631131 1.33381398702235  12.6095487246566 1.26315789473684  12.3413996075867 1.26315789473684  C 12.0078482668411 1.26315789473684  11.6906474820144 1.37563085796684  11.3897972531066 1.60057678442682  C 11.2982341399608 1.66402307137707  11.1805101373447 1.77361211247296  11.0366252452583 1.92934390771449  L 10.0065402223676 1.13338139870224  C 10.1765860039241 0.919971160778658  10.3826030085023 0.729632299927901  10.624591236102 0.562364816149965  C 11.1674296926095 0.187454938716654  11.7822105951602 0  12.4689339437541 0  C 13.1883584041857 0  13.7704381948986 0.171593366979091  14.2151733158927 0.514780100937275  C 14.6599084368869 0.857966834895456  14.8822759973839 1.31506849315068  14.8822759973839 1.88608507570296  C 14.8822759973839 2.20908435472242  14.8021582733813 2.50612833453497  14.6419228253761 2.77721701514059  C 14.4816873773708 3.04830569574621  14.2789404839765 3.26892573900505  14.0336821451929 3.43907714491709  C 13.7884238064094 3.60922855082913  13.5219097449313 3.77793799567412  13.2341399607587 3.94520547945205  C 12.946370176586 4.11247296322999  12.678221059516 4.25811103100216  12.4296926095487 4.38211968276856  C 12.1811641595814 4.50612833453497  11.9669718770438 4.65465032444124  11.7871157619359 4.82768565248738  C 11.607259646828 5.00072098053353  11.5075212557227 5.18240807498198  11.48790058862 5.37274693583273  L 13.7638979725311 5.37274693583273  L 13.7638979725311 4.68060562364816  Z " fill-rule="nonzero" fill="#000000" stroke="none" transform="matrix(1 0 0 1 653 909 )" />
  </g>
</svg>