<?xml version="1.0" encoding="utf-8"?>
<svg version="1.1" xmlns:xlink="http://www.w3.org/1999/xlink" width="15px" height="12px" xmlns="http://www.w3.org/2000/svg">
  <g transform="matrix(1 0 0 1 -626 -909 )">
    <path d="M 7.67145656433703 7.60138648180243  L 8.73938602220771 7.60138648180243  L 8.73938602220771 9.33795493934142  L 6.30960156760287 9.33795493934142  L 4.75179621162639 6.71750433275563  L 4.5166557805356 6.28076256499133  C 4.46440235140431 6.21837088388215  4.42847811887655 6.14558058925477  4.40888308295232 6.06239168110918  L 4.37949052906597 6.06239168110918  C 4.37295885042456 6.08318890814558  4.3647942521228 6.10571923743501  4.35499673416068 6.12998266897747  C 4.34519921619856 6.15424610051993  4.3337687785761 6.18197573656846  4.32070542129327 6.21317157712305  C 4.30764206401045 6.24436741767764  4.29784454604834 6.26689774696707  4.29131286740692 6.28076256499133  C 4.22599608099282 6.41941074523397  4.14435009797518 6.57192374350087  4.04637491835402 6.73830155979203  L 2.527759634226 9.33795493934142  L 0 9.33795493934142  L 0 7.60138648180243  L 1.25408229915088 7.60138648180243  L 3.18419333768779 4.57538994800693  L 1.37165251469628 1.74696707105719  L 0.0293925538863488 1.74696707105719  L 0.0293925538863488 0  L 2.73350751143044 0  L 4.0953625081646 2.37088388214905  C 4.10842586544742 2.39861351819757  4.18354016982364 2.54419410745234  4.32070542129327 2.80762564991335  C 4.37295885042456 2.87001733102253  4.40888308295232 2.94280762564991  4.42847811887655 3.02599653379549  L 4.4578706727629 3.02599653379549  C 4.47746570868713 2.96360485268631  4.51338994121489 2.89081455805893  4.56564337034618 2.80762564991335  L 4.81058131939909 2.37088388214905  L 6.18223383409536 0  L 8.70019595035924 0  L 8.70019595035924 1.74696707105719  L 7.47550620509471 1.74696707105719  L 5.67276290006532 4.52339688041594  L 7.67145656433703 7.60138648180243  Z M 13.7655127367734 9.8578856152513  L 15 9.8578856152513  L 15 12  L 9.96407576747224 12  L 9.92488569562378 11.7192374350087  C 9.90529065969954 11.4072790294627  9.89549314173743 11.2478336221837  9.89549314173743 11.2409012131716  C 9.89549314173743 10.7972270363951  9.98040496407577 10.3916811091854  10.1502286087524 10.0242634315425  C 10.3200522534291 9.65684575389948  10.532331809275 9.35701906412478  10.78706727629 9.12478336221837  C 11.041802743305 8.89254766031196  11.3161332462443 8.66724436741768  11.6100587851078 8.44887348353553  C 11.9039843239713 8.23050259965338  12.1783148269105 8.04159445407279  12.4330502939255 7.88214904679376  C 12.6877857609406 7.72270363951473  12.9000653167864 7.53552859618718  13.0698889614631 7.32062391681109  C 13.2397126061398 7.10571923743501  13.3246244284781 6.88388214904679  13.3246244284781 6.65511265164645  C 13.3246244284781 6.39168110918544  13.2282821685173 6.17504332755632  13.0355976485957 6.0051993067591  C 12.8429131286741 5.83535528596187  12.6126714565643 5.75043327556326  12.3448726322665 5.75043327556326  C 12.0117570215545 5.75043327556326  11.6949706074461 5.88561525129983  11.3945133899412 6.15597920277296  C 11.3030698889615 6.23223570190641  11.1854996734161 6.36395147313691  11.041802743305 6.55112651646447  L 10.0130633572828 5.59445407279029  C 10.1828870019595 5.33795493934142  10.3886348791639 5.10918544194107  10.6303069888961 4.90814558058925  C 11.152841280209 4.45753899480069  11.7668190725016 4.23223570190641  12.472240365774 4.23223570190641  C 13.1907250163292 4.23223570190641  13.7720444154148 4.43847487001733  14.2161985630307 4.85095320623917  C 14.6603527106466 5.263431542461  14.8824297844546 5.81282495667244  14.8824297844546 6.49913344887348  C 14.8824297844546 6.95667244367418  14.7697583278903 7.36741767764298  14.5444154147616 7.7313691507799  C 14.3190725016329 8.09532062391681  14.0447419986937 8.39341421143848  13.7214239059438 8.62564991334489  C 13.398105813194 8.8578856152513  13.0731548007838 9.07452339688042  12.7465708687133 9.27556325823224  C 12.4199869366427 9.47660311958406  12.1358589157413 9.6949740034662  11.8941868060091 9.93067590987868  C 11.6525146962769 10.1663778162912  11.518615284128 10.419410745234  11.4924885695624 10.6897746967071  L 13.7655127367734 10.6897746967071  L 13.7655127367734 9.8578856152513  Z " fill-rule="nonzero" fill="#000000" stroke="none" transform="matrix(1 0 0 1 626 909 )" />
  </g>
</svg>