<?xml version="1.0" encoding="utf-8"?>
<svg version="1.1" xmlns:xlink="http://www.w3.org/1999/xlink" width="15px" height="12px" xmlns="http://www.w3.org/2000/svg">
  <g transform="matrix(1 0 0 1 -866 -909 )">
    <path d="M 13.951928451649 9.99349381912817  L 14.6226942425936 9.99349381912817  C 14.8071548351034 9.99349381912817  14.9245388485187 10.0416395575797  14.9748462828396 10.1379310344828  C 15.0251537171604 10.2342225113858  14.9944102850755 10.3500325309044  14.8826159865847 10.4853610930384  L 13.8261598658468 11.7501626545218  C 13.7143655673561 11.8854912166558  13.5774175517049 11.9531554977228  13.4153158188932 11.9531554977228  C 13.2532140860816 11.9531554977228  13.1162660704304 11.8854912166558  13.0044717719396 11.7501626545218  L 11.9480156512018 10.4853610930384  C 11.836221352711 10.3500325309044  11.805477920626 10.2342225113858  11.8557853549469 10.1379310344828  C 11.9060927892677 10.0416395575797  12.0234768026831 9.99349381912817  12.2079373951928 9.99349381912817  L 12.8787031861375 9.99349381912817  L 12.8787031861375 1.99869876382563  L 12.2079373951928 1.99869876382563  C 12.0234768026831 1.99869876382563  11.9060927892677 1.95055302537411  11.8557853549469 1.85426154847105  C 11.805477920626 1.75797007156799  11.836221352711 1.64216005204945  11.9480156512018 1.50683148991542  L 13.0044717719396 0.24202992843201  C 13.1162660704304 0.106701366297982  13.2532140860816 0.0390370852309698  13.4153158188932 0.0390370852309698  C 13.5774175517049 0.0390370852309698  13.7143655673561 0.106701366297982  13.8261598658468 0.24202992843201  L 14.8826159865847 1.50683148991542  C 14.9944102850755 1.64216005204945  15.0251537171604 1.75797007156799  14.9748462828396 1.85426154847105  C 14.9245388485187 1.95055302537411  14.8071548351034 1.99869876382563  14.6226942425936 1.99869876382563  L 13.951928451649 1.99869876382563  L 13.951928451649 9.99349381912817  Z M 0 0.0156148340923874  L 0.67915036333147 0.0078074170461937  L 1.13191727221912 0.218607677293429  C 1.19899385131358 0.244632400780741  1.78870877585243 0.257644762524399  2.90106204583566 0.257644762524399  C 3.14700950251537 0.257644762524399  3.51593068753494 0.252439817826934  4.00782560089436 0.24202992843201  C 4.49972051425377 0.231620039037084  4.86864169927334 0.226415094339623  5.11458915595305 0.226415094339623  C 5.31581889323645 0.226415094339623  5.61626607043041 0.227716330513987  6.01593068753494 0.230318802862719  C 6.41559530463946 0.23292127521145  6.71604248183343 0.234222511385816  6.91727221911682 0.234222511385816  L 9.37395192845165 0.234222511385816  C 9.40749021799888 0.234222511385816  9.46618222470654 0.235523747560181  9.55002794857462 0.238126219908913  C 9.63387367244271 0.240728692257644  9.69116825041923 0.240728692257644  9.72191168250419 0.238126219908913  C 9.75265511458916 0.235523747560181  9.79737283398547 0.227716330513987  9.85606484069313 0.214703968770332  C 9.91475684740078 0.201691607026674  9.9636668529905 0.178269355888093  10.0027948574623 0.144437215354587  C 10.041922861934 0.110605074821079  10.0838457238681 0.0650618087182817  10.1285634432644 0.0078074170461937  L 10.4807154835103 0  C 10.5030743432085 0  10.5422023476803 0.00130123617436473  10.5980994969257 0.00390370852309685  C 10.653996646171 0.00650618087182764  10.6931246506428 0.0078074170461937  10.715483510341 0.0078074170461937  C 10.7266629401901 0.590761223162002  10.7322526551146 1.46519193233572  10.7322526551146 2.63109954456734  C 10.7322526551146 3.04749512036435  10.7182783678032 3.33116460637606  10.6903297931805 3.48210800260247  C 10.4723309111235 3.55497722836695  10.2822806036892 3.60182173064411  10.1201788708776 3.62264150943396  C 9.98043599776411 3.39362394274561  9.82951369480157 3.060507482108  9.66741196198994 2.62329212752115  C 9.65064281721632 2.57644762524398  9.61989938513136 2.45152895250488  9.57518166573505 2.24853610930384  C 9.53046394633874 2.0455432661028  9.48993851313583 1.85426154847105  9.45360536612633 1.67469095640859  C 9.41727221911682 1.49512036434613  9.3963107881498 1.40273259596617  9.39072107322527 1.39752765126871  C 9.35718278367803 1.355888093689  9.3236444941308 1.32335718932986  9.29010620458357 1.29993493819128  C 9.25656791503633 1.2765126870527  9.21324762437116 1.26089785296031  9.16014533258804 1.25309043591412  C 9.10704304080492 1.24528301886792  9.07070989379542 1.2387768379961  9.05114589155953 1.23357189329863  C 9.03158188932365 1.22836694860117  8.9812744550028 1.2270657124268  8.90022358859698 1.22966818477554  C 8.81917272219117 1.23227065712427  8.77305757406372 1.23357189329863  8.76187814421464 1.23357189329863  C 8.66685299049749 1.23357189329863  8.48099496925657 1.23227065712427  8.20430408049189 1.22966818477554  C 7.92761319172722 1.2270657124268  7.71939631078815 1.22576447625244  7.57965343767468 1.22576447625244  C 7.43991056456121 1.22576447625244  7.26103968697597 1.2309694209499  7.04304080491895 1.24137931034483  C 6.82504192286194 1.25178919973975  6.62660704304081 1.26740403383214  6.44773616545556 1.28822381262199  C 6.39742873113471 1.70982433311646  6.37506987143656 2.06376057254392  6.3806595863611 2.35003253090436  C 6.3806595863611 2.83929733246584  6.38624930128563 3.84905660377359  6.39742873113471 5.37931034482759  C 6.40860816098379 6.90956408588159  6.41419787590833 8.09368900455432  6.41419787590833 8.9316851008458  C 6.41419787590833 9.01496421600521  6.40721073225266 9.20104098893949  6.39323644494131 9.48991541964867  C 6.37926215762996 9.77878985035784  6.37926215762996 10.0169160702668  6.39323644494131 10.2042940793754  C 6.40721073225266 10.3916720884841  6.44214645053102 10.5712426805465  6.49804359977641 10.7430058555628  C 6.72163219675797 10.8523096942095  7.06819452207937 10.9629147690306  7.53773057574064 11.074821080026  C 8.0072666294019 11.1867273910215  8.34264952487423 11.2843201040989  8.54387926215763 11.3675992192583  C 8.57182783678032 11.5757970071568  8.58580212409167 11.7059206245934  8.58580212409167 11.757970071568  C 8.58580212409167 11.8308392973325  8.57741755170486 11.9063109954457  8.56064840693125 11.9843851659076  L 8.27557294577976 11.9921925829538  C 7.85075461151481 12.0026024723487  7.24147568474008 11.9817826935589  6.44773616545556 11.9297332465843  C 5.65399664617105 11.8776837996096  5.07546115148127 11.8516590761223  4.71212968138625 11.8516590761223  C 4.43264393515931 11.8516590761223  4.01062045835662 11.8750813272609  3.4460592509782 11.9219258295381  C 2.88149804359978 11.9687703318152  2.45667970933482 11.9921925829538  2.17160424818334 11.9921925829538  C 2.15483510340973 11.7267404033832  2.14645053102292 11.5914118412492  2.14645053102292 11.5862068965517  L 2.14645053102292 11.515940143136  C 2.24147568474008 11.3754066363045  2.41335941866965 11.263500325309  2.66210173281163 11.1802212101496  C 2.91084404695361 11.0969420949902  3.18613750698714 11.021470396877  3.48798211291224 10.95380611581  C 3.78982671883734 10.886141834743  4.00782560089436 10.8158750813273  4.14197875908329 10.7430058555628  C 4.24818334264953 10.5243981782694  4.30128563443264 9.52765126870527  4.30128563443264 7.75276512687053  C 4.30128563443264 7.22706571242681  4.29290106204584 6.43851659076122  4.27613191727222 5.38711776187378  C 4.2593627724986 4.33571893298634  4.2509782001118 3.54716981132075  4.25097820011179 3.02147039687703  L 4.25097820011179 2.10800260247235  C 4.2509782001118 2.09759271307742  4.25237562884293 2.05725439167209  4.2551704863052 1.98698763825634  C 4.25796534376747 1.9167208848406  4.2593627724986 1.85165907612232  4.2593627724986 1.7918022121015  C 4.2593627724986 1.73194534808068  4.25656791503633 1.66558230318803  4.25097820011179 1.59271307742355  C 4.24538848518726 1.51984385165908  4.23700391280045 1.45738451528952  4.22582448295137 1.4053350683149  C 4.21464505310229 1.35328562134027  4.20067076579095 1.31685100845803  4.18390162101733 1.29603122966818  C 4.1224147568474 1.23357189329863  3.66964784795975 1.20234222511386  2.82560089435439 1.20234222511386  C 2.64114030184461 1.20234222511386  2.38121855785355 1.23357189329863  2.04583566238122 1.29603122966818  C 1.71045276690889 1.35849056603774  1.48686416992733 1.42615484710475  1.37506987143656 1.49902407286923  C 1.26886528787032 1.56668835393624  1.17384013415316 1.75536759921926  1.08999441028508 2.06506180871828  C 1.00614868641699 2.37475601821731  0.918110676355506 2.66363044892648  0.825880380100615 2.9316851008458  C 0.733650083845724 3.19973975276513  0.614868641699273 3.33897202342225  0.469536053661263 3.34938191281718  C 0.234768026830632 3.21405335068315  0.0782560089435439 3.09954456733897  0 3.00585556278465  L 0 0.0156148340923874  Z " fill-rule="nonzero" fill="#000000" stroke="none" transform="matrix(1 0 0 1 866 909 )" />
  </g>
</svg>