<?xml version="1.0" encoding="utf-8"?>
<svg version="1.1" xmlns:xlink="http://www.w3.org/1999/xlink" width="104px" height="104px" xmlns="http://www.w3.org/2000/svg">
  <g transform="matrix(1 0 0 1 -594 -1383 )">
    <path d="M 595 1387  A 3 3 0 0 1 598 1384 L 694 1384  A 3 3 0 0 1 697 1387 L 697 1483  A 3 3 0 0 1 694 1486 L 598 1486  A 3 3 0 0 1 595 1483 L 595 1387  Z " fill-rule="nonzero" fill="#ffffff" stroke="none" />
    <path d="M 594.5 1387  A 3.5 3.5 0 0 1 598 1383.5 L 694 1383.5  A 3.5 3.5 0 0 1 697.5 1387 L 697.5 1483  A 3.5 3.5 0 0 1 694 1486.5 L 598 1486.5  A 3.5 3.5 0 0 1 594.5 1483 L 594.5 1387  Z " stroke-width="1" stroke-dasharray="9,4" stroke="#d9d9d9" fill="none" stroke-dashoffset="0.5" />
  </g>
</svg>