<?xml version="1.0" encoding="utf-8"?>
<svg version="1.1" xmlns:xlink="http://www.w3.org/1999/xlink" width="104px" height="104px" xmlns="http://www.w3.org/2000/svg">
  <g transform="matrix(1 0 0 1 -474 -1383 )">
    <path d="M 475 1387  A 3 3 0 0 1 478 1384 L 574 1384  A 3 3 0 0 1 577 1387 L 577 1483  A 3 3 0 0 1 574 1486 L 478 1486  A 3 3 0 0 1 475 1483 L 475 1387  Z " fill-rule="nonzero" fill="#000000" stroke="none" fill-opacity="0.0196078431372549" />
    <path d="M 474.5 1387  A 3.5 3.5 0 0 1 478 1383.5 L 574 1383.5  A 3.5 3.5 0 0 1 577.5 1387 L 577.5 1483  A 3.5 3.5 0 0 1 574 1486.5 L 478 1486.5  A 3.5 3.5 0 0 1 474.5 1483 L 474.5 1387  Z " stroke-width="1" stroke-dasharray="9,4" stroke="#000000" fill="none" stroke-opacity="0.149019607843137" stroke-dashoffset="0.5" />
  </g>
</svg>