<?xml version="1.0" encoding="utf-8"?>
<svg version="1.1" xmlns:xlink="http://www.w3.org/1999/xlink" width="20px" height="16px" xmlns="http://www.w3.org/2000/svg">
  <g transform="matrix(1 0 0 1 -794 -706 )">
    <path d="M 19.9893303571429 7.97736283185841  C 19.9893303571429 12.347982300885  15.5207142857143 15.8913274336283  10.0085714285714 15.8913274336283  C 4.49622767857143 15.8913274336283  0.0277901785714363 12.3479646017699  0.0277901785714363 7.97734513274335  C 0.0277901785714363 3.60667256637169  4.49622767857143 0.0633982300884952  10.0085714285714 0.0633982300884952  C 15.5207142857143 0.0633982300884952  19.9893303571429 3.60667256637169  19.9893303571429 7.97736283185841  Z M 18.8582589285714 7.97736283185841  C 18.8582589285714 4.10192920353981  14.8961160714286 0.960230088495564  10.0085714285714 0.960230088495564  C 5.12102678571431 0.960230088495564  1.15883928571428 4.10185840707965  1.15883928571428 7.97736283185841  C 1.15883928571428 11.852796460177  5.12102678571431 14.9944778761062  10.0085714285714 14.9944778761062  C 14.8961160714286 14.9944778761062  18.8582589285714 11.852796460177  18.8582589285714 7.97736283185841  Z M 14.8375892857143 9.34044247787611  C 15.1326116071429 9.44989380530973  15.2591294642857 9.72769911504426  15.12109375 9.96164601769911  C 14.9836383928572 10.1951504424779  14.6327008928571 10.2954513274336  14.3382142857143 10.1860353982301  L 9.64812500000001 8.94277876106196  C 9.42379464285715 8.8597168141593  9.29890624999999 8.67906194690266  9.31151785714285 8.49438938053098  C 9.3086830357143 8.47569911504425  9.29785714285714 8.46017699115043  9.29785714285714 8.44093805309734  L 9.29785714285714 3.30368141592919  C 9.29785714285714 3.04552212389382  9.56125 2.83660176991151  9.88683035714288 2.83660176991151  C 10.2123883928572 2.83660176991151  10.47578125 3.04552212389382  10.47578125 3.30368141592919  L 10.47578125 8.18380530973451  L 14.8375892857143 9.34044247787611  Z " fill-rule="nonzero" fill="#d7d7d7" stroke="none" transform="matrix(1 0 0 1 794 706 )" />
  </g>
</svg>