<?xml version="1.0" encoding="utf-8"?>
<svg version="1.1" xmlns:xlink="http://www.w3.org/1999/xlink" width="12px" height="8px" xmlns="http://www.w3.org/2000/svg">
  <g transform="matrix(1 0 0 1 -649 -1240 )">
    <path d="M 11.3931818181818 7.4571428571428  C 11.1068181818182 7.75714285714287  10.7352272727273 7.90357142857147  10.3636363636364 7.90357142857147  C 9.99204545454546 7.90357142857147  9.62045454545455 7.75357142857138  9.33409090909089 7.4571428571428  L 6 3.96428571428567  L 2.66590909090911 7.4571428571428  C 2.10000000000002 8.05357142857144  1.17613636363637 8.05357142857144  0.610227272727286 7.4571428571428  C 0.0409090909091105 6.86071428571427  0.0409090909091105 5.8964285714286  0.610227272727286 5.30357142857144  L 4.97386363636366 0.73214285714289  C 5.53977272727275 0.135714285714243  6.46363636363634 0.135714285714243  7.02954545454543 0.73214285714289  L 11.3931818181818 5.30357142857144  C 11.9625 5.89999999999998  11.9625 6.86428571428576  11.3931818181818 7.4571428571428  Z " fill-rule="nonzero" fill="#aeaeae" stroke="none" transform="matrix(1 0 0 1 649 1240 )" />
  </g>
</svg>