<?xml version="1.0" encoding="utf-8"?>
<svg version="1.1" xmlns:xlink="http://www.w3.org/1999/xlink" width="36px" height="24px" xmlns="http://www.w3.org/2000/svg">
  <g transform="matrix(1 0 0 1 -637 -1225 )">
    <path d="M 36 14.8848837209302  C 36 19.806976744186  31.9640625 23.8151162790698  27 23.8151162790698  C 26.1703125 23.8151162790698  25.498828125 23.1488372093023  25.498828125 22.3255813953489  C 25.498828125 21.5023255813953  26.1703125 20.836046511628  27 20.836046511628  C 30.308203125 20.836046511628  33.001171875 18.163953488372  33.001171875 14.8813953488373  C 33.001171875 11.7558139534883  30.53671875 9.14999999999998  27.39375 8.94767441860461  L 26.5078125 8.89534883720933  L 26.131640625 8.10348837209301  C 24.648046875 4.98837209302326  21.455859375 2.97558139534885  18 2.97558139534885  C 14.544140625 2.97558139534885  11.351953125 4.98837209302326  9.86835937500001 8.10348837209301  L 9.4921875 8.89534883720933  L 8.60976562500002 8.95116279069771  C 5.46328125000002 9.15348837209308  3.00234375000002 11.7593023255814  3.00234375000002 14.8848837209302  C 3.00234375000002 18.1674418604651  5.6953125 20.8395348837209  9.00351562499998 20.8395348837209  C 9.83320312500001 20.8395348837209  10.5046875 21.5058139534884  10.5046875 22.3290697674419  C 10.5046875 23.1523255813953  9.83320312500001 23.8186046511628  9.00351562499998 23.8186046511628  C 4.03945312500002 23.8186046511628  0.00351562499997726 19.8139534883721  0.00351562499997726 14.8883720930232  C 0.00351562499997726 10.4895348837209  3.25546874999998 6.77790697674425  7.55156249999999 6.08372093023252  C 9.66093749999999 2.36162790697676  13.672265625 0  18 0  C 22.327734375 0  26.3390625 2.36162790697676  28.451953125 6.07674418604654  C 32.748046875 6.77093023255816  36 10.4860465116279  36 14.8848837209302  Z " fill-rule="nonzero" fill="#aeaeae" stroke="none" transform="matrix(1 0 0 1 637 1225 )" />
  </g>
</svg>