<?xml version="1.0" encoding="utf-8"?>
<svg version="1.1" xmlns:xlink="http://www.w3.org/1999/xlink" width="60px" height="32px" xmlns="http://www.w3.org/2000/svg">
  <g transform="matrix(1 0 0 1 -719 -309 )">
    <path d="M 0 28  L 0 4  C 0 1.75999999999999  1.19999999999999 0  2.72727272727273 0  L 26.2170087976556 0  L 28.7694013303776 0  L 30.0997782705106 0  L 32.7605321507773 0  L 35.8944281524935 0  L 38.5337243401764 0  L 39.4124168514424 0  L 40.2932551319656 0  L 57.2727272727273 0  C 58.8 0  60 1.75999999999999  60 4  L 60 12.3703703703688  L 60 28  C 60 30.24  58.8 32  57.2727272727273 32  L 43.8123167155441 32  L 39.4124168514424 32  L 30.0997782705106 32  L 28.7694013303776 32  L 2.72727272727273 32  C 1.19999999999999 32  0 30.24  0 28  Z " fill-rule="nonzero" fill="#1890ff" stroke="none" transform="matrix(1 0 0 1 719 309 )" />
  </g>
</svg>