<?xml version="1.0" encoding="utf-8"?>
<svg version="1.1" xmlns:xlink="http://www.w3.org/1999/xlink" width="240px" height="38px" xmlns="http://www.w3.org/2000/svg">
  <g transform="matrix(1 0 0 1 -481 -379 )">
    <path d="M 481.5 383  A 3.5 3.5 0 0 1 485 379.5 L 717 379.5  A 3.5 3.5 0 0 1 720.5 383 L 720.5 413  A 3.5 3.5 0 0 1 717 416.5 L 485 416.5  A 3.5 3.5 0 0 1 481.5 413 L 481.5 383  Z " fill-rule="nonzero" fill="#ffffff" stroke="none" />
    <path d="M 481.5 383  A 3.5 3.5 0 0 1 485 379.5 L 717 379.5  A 3.5 3.5 0 0 1 720.5 383 L 720.5 413  A 3.5 3.5 0 0 1 717 416.5 L 485 416.5  A 3.5 3.5 0 0 1 481.5 413 L 481.5 383  Z " stroke-width="1" stroke="#409eff" fill="none" />
  </g>
</svg>