<?xml version="1.0" encoding="utf-8"?>
<svg version="1.1" xmlns:xlink="http://www.w3.org/1999/xlink" width="62px" height="36px" xmlns="http://www.w3.org/2000/svg">
  <defs>
    <mask fill="white" id="clip242">
      <path d="M 0 32  L 0 4  C 0 1.75999999999999  1.75999999999999 0  4 0  L 40.705882352941 0  L 58 0  C 60.24 0  62 1.75999999999999  62 4  L 62 32  C 62 34.24  60.24 36  58 36  L 4 36  C 1.75999999999999 36  0 34.24  0 32  Z " fill-rule="evenodd" />
    </mask>
  </defs>
  <g transform="matrix(1 0 0 1 -719 -954 )">
    <path d="M 0 32  L 0 4  C 0 1.75999999999999  1.75999999999999 0  4 0  L 40.705882352941 0  L 58 0  C 60.24 0  62 1.75999999999999  62 4  L 62 32  C 62 34.24  60.24 36  58 36  L 4 36  C 1.75999999999999 36  0 34.24  0 32  Z " fill-rule="nonzero" fill="#ecf5ff" stroke="none" transform="matrix(1 0 0 1 719 954 )" />
    <path d="M 0 32  L 0 4  C 0 1.75999999999999  1.75999999999999 0  4 0  L 40.705882352941 0  L 58 0  C 60.24 0  62 1.75999999999999  62 4  L 62 32  C 62 34.24  60.24 36  58 36  L 4 36  C 1.75999999999999 36  0 34.24  0 32  Z " stroke-width="2" stroke="#3a8ee6" fill="none" transform="matrix(1 0 0 1 719 954 )" mask="url(#clip242)" />
  </g>
</svg>