<?xml version="1.0" encoding="utf-8"?>
<svg version="1.1" xmlns:xlink="http://www.w3.org/1999/xlink" width="14px" height="14px" xmlns="http://www.w3.org/2000/svg">
  <g transform="matrix(1 0 0 1 -1137 -210 )">
    <path d="M 1144 213  C 1146.24 213  1148 214.76  1148 217  C 1148 219.24  1146.24 221  1144 221  C 1141.76 221  1140 219.24  1140 217  C 1140 214.76  1141.76 213  1144 213  Z " fill-rule="nonzero" fill="#ffffff" stroke="none" />
    <path d="M 1144 212  C 1146.8 212  1149 214.2  1149 217  C 1149 219.8  1146.8 222  1144 222  C 1141.2 222  1139 219.8  1139 217  C 1139 214.2  1141.2 212  1144 212  Z " stroke-width="4" stroke="#1890ff" fill="none" />
  </g>
</svg>