<?xml version="1.0" encoding="utf-8"?>
<svg version="1.1" xmlns:xlink="http://www.w3.org/1999/xlink" width="89px" height="32px" xmlns="http://www.w3.org/2000/svg">
  <g transform="matrix(1 0 0 1 -1057 -418 )">
    <path d="M 1058 422  A 3 3 0 0 1 1061 419 L 1142 419  A 3 3 0 0 1 1145 422 L 1145 446  A 3 3 0 0 1 1142 449 L 1061 449  A 3 3 0 0 1 1058 446 L 1058 422  Z " fill-rule="nonzero" fill="#67c23a" stroke="none" fill-opacity="0.0980392156862745" />
    <path d="M 1057.5 422  A 3.5 3.5 0 0 1 1061 418.5 L 1142 418.5  A 3.5 3.5 0 0 1 1145.5 422 L 1145.5 446  A 3.5 3.5 0 0 1 1142 449.5 L 1061 449.5  A 3.5 3.5 0 0 1 1057.5 446 L 1057.5 422  Z " stroke-width="1" stroke="#67c23a" fill="none" stroke-opacity="0.2" />
  </g>
</svg>