<?xml version="1.0" encoding="utf-8"?>
<svg version="1.1" xmlns:xlink="http://www.w3.org/1999/xlink" width="72px" height="32px" xmlns="http://www.w3.org/2000/svg">
  <g transform="matrix(1 0 0 1 -1060 -507 )">
    <path d="M 1061 511  A 3 3 0 0 1 1064 508 L 1128 508  A 3 3 0 0 1 1131 511 L 1131 535  A 3 3 0 0 1 1128 538 L 1064 538  A 3 3 0 0 1 1061 535 L 1061 511  Z " fill-rule="nonzero" fill="#909399" stroke="none" fill-opacity="0.0980392156862745" />
    <path d="M 1060.5 511  A 3.5 3.5 0 0 1 1064 507.5 L 1128 507.5  A 3.5 3.5 0 0 1 1131.5 511 L 1131.5 535  A 3.5 3.5 0 0 1 1128 538.5 L 1064 538.5  A 3.5 3.5 0 0 1 1060.5 535 L 1060.5 511  Z " stroke-width="1" stroke="#909399" fill="none" stroke-opacity="0.2" />
  </g>
</svg>