<?xml version="1.0" encoding="utf-8"?>
<svg version="1.1" xmlns:xlink="http://www.w3.org/1999/xlink" width="72px" height="32px" xmlns="http://www.w3.org/2000/svg">
  <g transform="matrix(1 0 0 1 -1060 -554 )">
    <path d="M 1061 558  A 3 3 0 0 1 1064 555 L 1128 555  A 3 3 0 0 1 1131 558 L 1131 582  A 3 3 0 0 1 1128 585 L 1064 585  A 3 3 0 0 1 1061 582 L 1061 558  Z " fill-rule="nonzero" fill="#f56c6c" stroke="none" fill-opacity="0.0980392156862745" />
    <path d="M 1060.5 558  A 3.5 3.5 0 0 1 1064 554.5 L 1128 554.5  A 3.5 3.5 0 0 1 1131.5 558 L 1131.5 582  A 3.5 3.5 0 0 1 1128 585.5 L 1064 585.5  A 3.5 3.5 0 0 1 1060.5 582 L 1060.5 558  Z " stroke-width="1" stroke="#f56c6c" fill="none" stroke-opacity="0.2" />
  </g>
</svg>