<?xml version="1.0" encoding="utf-8"?>
<svg version="1.1" xmlns:xlink="http://www.w3.org/1999/xlink" width="72px" height="32px" xmlns="http://www.w3.org/2000/svg">
  <g transform="matrix(1 0 0 1 -1057 -463 )">
    <path d="M 1057.5 467  A 3.5 3.5 0 0 1 1061 463.5 L 1125 463.5  A 3.5 3.5 0 0 1 1128.5 467 L 1128.5 491  A 3.5 3.5 0 0 1 1125 494.5 L 1061 494.5  A 3.5 3.5 0 0 1 1057.5 491 L 1057.5 467  Z " fill-rule="nonzero" fill="#0099ff" stroke="none" fill-opacity="0.0980392156862745" />
    <path d="M 1057.5 467  A 3.5 3.5 0 0 1 1061 463.5 L 1125 463.5  A 3.5 3.5 0 0 1 1128.5 467 L 1128.5 491  A 3.5 3.5 0 0 1 1125 494.5 L 1061 494.5  A 3.5 3.5 0 0 1 1057.5 491 L 1057.5 467  Z " stroke-width="1" stroke="#a7d2f9" fill="none" />
  </g>
</svg>