<?xml version="1.0" encoding="utf-8"?>
<svg version="1.1" xmlns:xlink="http://www.w3.org/1999/xlink" width="24px" height="24px" xmlns="http://www.w3.org/2000/svg">
  <g transform="matrix(1 0 0 1 -1016 -239 )">
    <path d="M 1028 239  C 1034.72 239  1040 244.28  1040 251  C 1040 257.72  1034.72 263  1028 263  C 1021.28 263  1016 257.72  1016 251  C 1016 244.28  1021.28 239  1028 239  Z " fill-rule="nonzero" fill="#ffffff" stroke="none" />
    <path d="M 1028 239.5  C 1034.44 239.5  1039.5 244.56  1039.5 251  C 1039.5 257.44  1034.44 262.5  1028 262.5  C 1021.56 262.5  1016.5 257.44  1016.5 251  C 1016.5 244.56  1021.56 239.5  1028 239.5  Z " stroke-width="1" stroke="#c0c4cc" fill="none" />
  </g>
</svg>